<svg xmlns="http://www.w3.org/2000/svg" xmlns:v="https://svgstorm.com"
viewBox = "0 0 1482 1727"
width="1482"
height="1727">
<g id="ID_1" fill="None" fill-opacity="0.0" stroke="#000000" stroke-opacity="0.00" stroke-width="0.3"><path d="
M 0.00 1727.00 
L 1.00 1727.00
C 1.00 1151.33 1.00 575.67 1.00 0.00
L 0.00 0.00
L 0.00 1727.00 Z"/>
</g>
<g id="ID_2" fill="None" fill-opacity="0.0" stroke="#EAEAEA" stroke-opacity="1.00" stroke-width="0.3"><path d="
M 1.00 1727.00 
L 1481.00 1727.00
C 1480.98 1151.33 1481.02 575.67 1481.00 0.00
L 1.00 0.00
C 1.00 575.67 1.00 1151.33 1.00 1727.00
M 1451.00 530.00 
C 1454.36 564.75 1452.00 602.41 1452.00 638.00 C 1452.00 673.59 1454.36 711.32 1451.00 746.00
C 1451.00 781.60 1450.49 821.87 1451.00 857.00 C 1451.51 892.13 1449.61 929.55 1445.00 962.00 C 1440.39 994.45 1433.96 1025.40 1426.22 1055.22 C 1418.49 1085.04 1410.69 1112.80 1400.03 1140.03 C 1389.36 1167.26 1378.69 1191.87 1365.70 1216.70 C 1352.70 1241.52 1339.97 1265.31 1324.70 1287.70 C 1309.42 1310.08 1295.63 1332.11 1277.75 1351.75 C 1259.88 1371.39 1246.90 1395.35 1225.00 1411.00
C 1217.83 1419.23 1210.32 1427.03 1202.00 1434.00
C 1190.04 1450.75 1171.95 1463.10 1157.75 1477.75 C 1143.55 1492.40 1125.65 1505.64 1110.00 1518.00
C 1142.32 1550.13 1136.19 1628.04 1082.78 1634.78 C 1029.36 1641.52 966.55 1643.79 918.00 1622.00
C 905.19 1630.85 892.60 1638.12 878.77 1645.77 C 864.94 1653.42 850.79 1660.07 836.31 1667.31 C 821.82 1674.54 807.83 1680.00 792.32 1686.32 C 776.81 1692.65 761.51 1699.98 744.00 1702.00 C 726.49 1704.02 707.59 1698.31 692.77 1690.23 C 677.95 1682.14 663.51 1678.99 648.92 1670.08 C 634.34 1661.16 621.87 1659.18 607.31 1648.70 C 592.74 1638.21 571.91 1638.31 553.00 1639.00 C 534.09 1639.69 512.59 1636.18 493.93 1635.07 C 475.27 1633.96 453.69 1631.87 435.93 1629.07 C 418.16 1626.27 401.89 1622.05 385.78 1616.22 C 369.67 1610.40 356.08 1604.61 341.32 1596.68 C 326.56 1588.75 317.17 1581.86 303.25 1571.75 C 289.33 1561.64 268.89 1572.09 251.33 1572.33 C 233.77 1572.57 209.99 1573.14 193.33 1568.67 C 176.67 1564.20 161.34 1559.17 146.75 1551.25 C 132.17 1543.32 120.39 1536.77 108.00 1526.00
C 100.41 1520.30 93.66 1513.54 88.00 1506.00
C 67.11 1478.20 49.24 1450.91 45.67 1415.33 C 42.10 1379.75 46.93 1336.04 68.25 1307.25 C 89.58 1278.47 120.93 1264.65 154.00 1259.00
C 84.62 1142.54 42.18 1011.87 46.00 872.00
C 45.32 864.99 45.00 856.70 45.00 849.00
C 45.00 711.09 45.00 571.90 45.00 434.00
C 45.00 427.29 45.42 419.95 46.00 414.00
C 46.00 398.59 47.77 380.02 47.00 365.00 C 46.23 349.98 54.16 340.64 63.25 330.25 C 72.33 319.85 81.10 314.38 93.07 309.07 C 105.04 303.77 117.56 299.61 130.08 295.08 C 142.59 290.54 155.55 286.91 168.23 282.23 C 180.91 277.55 195.16 275.62 208.01 271.01 C 220.85 266.40 234.57 263.95 247.68 259.68 C 260.79 255.41 275.86 255.20 288.67 249.67 C 301.48 244.15 289.47 224.49 289.07 211.93 C 288.68 199.37 286.24 178.05 288.78 164.78 C 291.32 151.51 292.63 136.54 300.30 125.30 C 307.98 114.06 313.44 106.45 325.23 99.23 C 337.03 92.01 349.03 88.63 363.02 86.02 C 377.02 83.42 396.52 83.73 411.01 84.99 C 425.50 86.26 441.65 88.01 455.01 91.99 C 468.36 95.98 481.07 100.09 493.69 104.31 C 506.31 108.52 517.52 113.99 529.23 118.77 C 540.94 123.55 552.63 130.21 563.25 135.75 C 573.87 141.30 590.66 155.47 591.00 139.00 C 591.34 122.53 593.38 106.76 594.78 91.78 C 596.18 76.80 597.91 62.59 604.32 50.32 C 610.73 38.05 616.76 30.61 628.25 23.25 C 639.73 15.88 654.20 12.84 668.00 12.00 C 681.80 11.16 698.74 16.03 711.23 19.77 C 723.72 23.52 735.28 28.29 746.23 34.77 C 757.18 41.26 767.52 47.20 777.70 54.30 C 787.87 61.40 797.27 68.51 806.75 76.25 C 816.23 83.99 824.83 91.89 833.75 100.25 C 842.67 108.61 850.38 117.62 858.25 126.75 C 866.13 135.87 873.24 145.76 880.75 155.25 C 888.26 164.74 895.12 174.93 902.25 184.75 C 909.38 194.56 917.18 204.53 923.00 215.00
C 954.23 217.45 988.09 220.25 1018.67 224.33 C 1049.25 228.41 1080.33 232.68 1110.00 238.00 C 1139.68 243.32 1168.64 250.07 1197.22 256.78 C 1225.80 263.49 1252.78 270.06 1280.08 278.92 C 1307.37 287.79 1333.37 293.16 1359.68 304.32 C 1385.99 315.48 1410.12 316.25 1432.75 337.25 C 1455.38 358.24 1451.26 392.72 1451.00 424.00 C 1450.74 455.28 1451.20 497.70 1451.00 530.00 Z"/>
</g>
<g id="ID_3" fill="None" fill-opacity="0.0" stroke="#000000" stroke-opacity="0.00" stroke-width="0.3"><path d="
M 1481.00 1727.00 
L 1482.00 1727.00
L 1482.00 0.00
L 1481.00 0.00
C 1481.02 575.67 1480.98 1151.33 1481.00 1727.00 Z"/>
</g>
<g id="ID_4" fill="None" fill-opacity="0.0" stroke="#222222" stroke-opacity="1.00" stroke-width="0.3"><path d="
M 46.00 414.00 
C 46.00 420.71 45.58 428.05 45.00 434.00
C 45.00 571.90 45.00 711.09 45.00 849.00
C 45.68 856.01 46.00 864.30 46.00 872.00
C 42.18 1011.87 84.62 1142.54 154.00 1259.00
C 120.93 1264.65 89.58 1278.47 68.25 1307.25 C 46.93 1336.04 42.10 1379.75 45.67 1415.33 C 49.24 1450.91 67.11 1478.20 88.00 1506.00
C 91.91 1509.02 96.02 1510.52 99.75 1514.25 C 103.49 1517.98 104.97 1522.09 108.00 1526.00
C 120.39 1536.77 132.17 1543.32 146.75 1551.25 C 161.34 1559.17 176.67 1564.20 193.33 1568.67 C 209.99 1573.14 233.77 1572.57 251.33 1572.33 C 268.89 1572.09 289.33 1561.64 303.25 1571.75 C 317.17 1581.86 326.56 1588.75 341.32 1596.68 C 356.08 1604.61 369.67 1610.40 385.78 1616.22 C 401.89 1622.05 418.16 1626.27 435.93 1629.07 C 453.69 1631.87 475.27 1633.96 493.93 1635.07 C 512.59 1636.18 534.09 1639.69 553.00 1639.00 C 571.91 1638.31 592.74 1638.21 607.31 1648.70 C 621.87 1659.18 634.34 1661.16 648.92 1670.08 C 663.51 1678.99 677.95 1682.14 692.77 1690.23 C 707.59 1698.31 726.49 1704.02 744.00 1702.00 C 761.51 1699.98 776.81 1692.65 792.32 1686.32 C 807.83 1680.00 821.82 1674.54 836.31 1667.31 C 850.79 1660.07 864.94 1653.42 878.77 1645.77 C 892.60 1638.12 905.19 1630.85 918.00 1622.00
C 966.55 1643.79 1029.36 1641.52 1082.78 1634.78 C 1136.19 1628.04 1142.32 1550.13 1110.00 1518.00
C 1125.65 1505.64 1143.55 1492.40 1157.75 1477.75 C 1171.95 1463.10 1190.04 1450.75 1202.00 1434.00
C 1208.99 1424.21 1215.21 1417.99 1225.00 1411.00
C 1246.90 1395.35 1259.88 1371.39 1277.75 1351.75 C 1295.63 1332.11 1309.42 1310.08 1324.70 1287.70 C 1339.97 1265.31 1352.70 1241.52 1365.70 1216.70 C 1378.69 1191.87 1389.36 1167.26 1400.03 1140.03 C 1410.69 1112.80 1418.49 1085.04 1426.22 1055.22 C 1433.96 1025.40 1440.39 994.45 1445.00 962.00 C 1449.61 929.55 1451.51 892.13 1451.00 857.00 C 1450.49 821.87 1451.00 781.60 1451.00 746.00
C 1451.00 674.00 1451.00 602.00 1451.00 530.00
C 1451.20 497.70 1450.74 455.28 1451.00 424.00 C 1451.26 392.72 1455.38 358.24 1432.75 337.25 C 1410.12 316.25 1385.99 315.48 1359.68 304.32 C 1333.37 293.16 1307.37 287.79 1280.08 278.92 C 1252.78 270.06 1225.80 263.49 1197.22 256.78 C 1168.64 250.07 1139.68 243.32 1110.00 238.00 C 1080.33 232.68 1049.25 228.41 1018.67 224.33 C 988.09 220.25 954.23 217.45 923.00 215.00
C 917.18 204.53 909.38 194.56 902.25 184.75 C 895.12 174.93 888.26 164.74 880.75 155.25 C 873.24 145.76 866.13 135.87 858.25 126.75 C 850.38 117.62 842.67 108.61 833.75 100.25 C 824.83 91.89 816.23 83.99 806.75 76.25 C 797.27 68.51 787.87 61.40 777.70 54.30 C 767.52 47.20 757.18 41.26 746.23 34.77 C 735.28 28.29 723.72 23.52 711.23 19.77 C 698.74 16.03 681.80 11.16 668.00 12.00 C 654.20 12.84 639.73 15.88 628.25 23.25 C 616.76 30.61 610.73 38.05 604.32 50.32 C 597.91 62.59 596.18 76.80 594.78 91.78 C 593.38 106.76 591.34 122.53 591.00 139.00 C 590.66 155.47 573.87 141.30 563.25 135.75 C 552.63 130.21 540.94 123.55 529.23 118.77 C 517.52 113.99 506.31 108.52 493.69 104.31 C 481.07 100.09 468.36 95.98 455.01 91.99 C 441.65 88.01 425.50 86.26 411.01 84.99 C 396.52 83.73 377.02 83.42 363.02 86.02 C 349.03 88.63 337.03 92.01 325.23 99.23 C 313.44 106.45 307.98 114.06 300.30 125.30 C 292.63 136.54 291.32 151.51 288.78 164.78 C 286.24 178.05 288.68 199.37 289.07 211.93 C 289.47 224.49 301.48 244.15 288.67 249.67 C 275.86 255.20 260.79 255.41 247.68 259.68 C 234.57 263.95 220.85 266.40 208.01 271.01 C 195.16 275.62 180.91 277.55 168.23 282.23 C 155.55 286.91 142.59 290.54 130.08 295.08 C 117.56 299.61 105.04 303.77 93.07 309.07 C 81.10 314.38 72.33 319.85 63.25 330.25 C 54.16 340.64 46.23 349.98 47.00 365.00 C 47.77 380.02 46.00 398.59 46.00 414.00
M 924.00 402.00 
C 886.87 403.89 851.03 410.97 816.00 421.00
C 811.27 408.48 804.77 395.94 799.23 383.77 C 793.68 371.60 786.77 360.05 780.70 348.30 C 774.62 336.56 766.66 326.10 760.25 314.75 C 753.83 303.40 746.03 293.50 737.25 283.75 C 728.46 274.00 720.42 264.20 711.25 254.75 C 702.08 245.30 694.16 236.68 684.75 227.25 C 675.34 217.82 666.94 210.40 657.75 200.25 C 648.56 190.10 648.97 170.62 647.02 156.98 C 645.07 143.34 642.24 118.77 644.33 105.33 C 646.42 91.89 649.58 74.55 662.01 69.01 C 674.44 63.47 695.20 72.04 707.22 75.78 C 719.25 79.51 729.55 89.98 740.25 96.75 C 750.95 103.53 760.80 113.15 770.75 121.25 C 780.70 129.35 789.56 137.86 798.75 147.25 C 807.95 156.64 816.43 165.21 824.75 175.25 C 833.07 185.29 840.31 195.33 847.92 206.08 C 855.53 216.83 862.79 228.01 869.25 239.75 C 875.72 251.48 881.94 263.03 887.31 275.69 C 892.67 288.36 898.34 300.62 902.92 314.08 C 907.51 327.53 911.26 341.83 914.93 356.07 C 918.60 370.32 921.77 387.13 924.00 402.00
M 793.00 530.00 
C 807.15 541.97 826.97 540.00 837.92 524.92 C 848.87 509.83 842.19 492.18 838.00 475.00
C 875.50 465.17 921.16 461.03 960.01 461.99 C 998.86 462.95 1039.59 471.61 1072.70 486.31 C 1105.80 501.00 1129.01 517.07 1155.25 540.75 C 1181.48 564.44 1197.76 588.15 1216.77 616.23 C 1235.78 644.31 1250.08 677.00 1261.00 709.00
C 1249.05 712.63 1227.28 707.88 1219.23 719.23 C 1211.19 730.58 1216.50 748.40 1227.70 756.30 C 1238.89 764.21 1256.33 766.94 1271.00 765.00
C 1272.05 779.00 1270.69 796.67 1267.07 809.07 C 1263.46 821.48 1258.54 830.66 1248.25 838.25 C 1237.97 845.85 1221.46 849.04 1209.00 847.00 C 1196.54 844.96 1180.58 844.86 1171.30 836.70 C 1162.03 828.53 1154.20 821.95 1149.23 810.77 C 1144.26 799.59 1134.00 787.87 1120.32 794.32 C 1106.65 800.78 1104.37 812.62 1107.77 824.23 C 1111.18 835.84 1117.18 845.71 1124.75 855.25 C 1132.33 864.78 1140.39 871.04 1151.08 876.92 C 1161.77 882.81 1175.46 888.15 1188.00 889.00
C 1192.82 889.26 1197.85 889.14 1202.00 890.00
C 1204.06 890.43 1206.05 890.13 1208.00 891.00
C 1200.01 900.95 1186.83 904.45 1174.31 910.31 C 1161.78 916.16 1147.56 919.58 1133.98 923.98 C 1120.39 928.37 1103.22 928.76 1088.99 931.99 C 1074.76 935.23 1050.42 928.06 1038.25 935.25 C 1026.08 942.44 1028.35 963.69 1037.75 972.25 C 1047.15 980.81 1068.59 977.77 1069.33 994.67 C 1070.07 1011.57 1076.53 1023.12 1077.33 1039.67 C 1078.13 1056.22 1081.70 1072.36 1082.00 1089.00 C 1082.30 1105.65 1081.35 1124.10 1080.00 1140.00 C 1078.65 1155.90 1075.85 1172.12 1073.01 1187.01 C 1070.17 1201.90 1066.61 1215.39 1062.08 1229.08 C 1057.54 1242.76 1053.72 1256.30 1048.07 1269.07 C 1042.43 1281.85 1037.53 1293.28 1031.08 1305.08 C 1024.62 1316.87 1020.27 1328.98 1010.00 1338.00
C 1009.66 1321.61 994.54 1285.80 972.32 1297.32 C 950.10 1308.85 960.82 1342.28 962.00 1363.00 C 963.18 1383.72 969.72 1412.03 974.99 1432.01 C 980.26 1451.99 986.23 1474.92 996.77 1492.23 C 1007.31 1509.54 1020.53 1523.78 1039.23 1531.77 C 1057.93 1539.76 1076.88 1556.74 1072.00 1581.00
C 1051.43 1581.32 1026.10 1580.57 1006.00 1581.00 C 985.90 1581.43 963.97 1581.27 947.32 1573.68 C 930.67 1566.09 921.08 1558.99 908.75 1546.25 C 896.42 1533.51 889.77 1522.35 882.08 1506.92 C 874.38 1491.49 867.04 1477.86 862.22 1460.78 C 857.41 1443.70 851.41 1425.79 850.02 1406.98 C 848.64 1388.17 851.26 1360.29 848.00 1342.00 C 844.74 1323.71 841.85 1304.84 835.68 1288.32 C 829.50 1271.81 823.93 1257.06 815.70 1242.31 C 807.46 1227.55 799.54 1215.64 789.25 1202.75 C 778.95 1189.87 768.47 1180.58 755.75 1170.25 C 743.03 1159.91 731.05 1151.66 715.92 1144.08 C 700.79 1136.50 685.30 1130.77 667.93 1126.07 C 650.55 1121.38 627.08 1119.33 608.00 1119.00 C 588.92 1118.67 584.88 1148.01 599.25 1157.75 C 613.62 1167.50 633.15 1167.66 648.68 1174.32 C 664.20 1180.99 679.58 1186.49 693.70 1195.30 C 707.81 1204.12 719.78 1211.14 731.25 1223.75 C 742.72 1236.36 751.23 1246.37 759.92 1261.08 C 768.61 1275.79 774.76 1290.14 779.78 1307.22 C 784.79 1324.31 785.04 1350.03 784.22 1368.22 C 783.40 1386.41 779.36 1407.29 772.70 1422.70 C 766.03 1438.10 756.67 1451.40 747.75 1463.75 C 738.84 1476.10 716.54 1490.02 725.33 1506.67 C 734.12 1523.32 763.45 1512.89 778.02 1519.98 C 792.60 1527.06 812.66 1527.90 825.70 1538.30 C 838.74 1548.71 851.69 1563.25 847.00 1580.00
C 804.97 1580.63 760.05 1581.65 718.00 1581.00 C 675.95 1580.35 627.88 1582.08 587.00 1581.00 C 546.12 1579.92 498.67 1581.49 461.00 1577.00 C 423.33 1572.51 393.40 1561.82 362.77 1544.23 C 332.14 1526.64 316.10 1507.72 297.08 1478.92 C 278.06 1450.13 269.63 1418.45 262.01 1383.99 C 254.39 1349.53 255.14 1299.61 261.99 1264.99 C 268.84 1230.38 276.95 1193.37 290.32 1162.32 C 303.70 1131.27 317.61 1104.67 336.30 1078.30 C 354.99 1051.94 374.23 1031.00 397.75 1008.75 C 421.27 986.50 446.03 969.85 472.70 952.70 C 499.36 935.54 528.55 921.83 556.23 906.23 C 583.91 890.63 614.27 876.63 641.70 860.70 C 669.12 844.76 695.46 817.57 697.00 785.00
C 697.00 770.00 697.00 755.00 697.00 740.00
C 697.00 698.64 692.31 655.97 714.00 620.00
C 720.02 619.83 725.76 618.38 732.00 619.00
C 737.83 618.44 745.64 618.85 752.00 618.00
C 763.51 615.02 775.13 608.36 776.98 594.98 C 778.82 581.59 772.05 568.46 759.00 564.00
C 743.45 558.68 723.57 559.78 708.00 555.00 C 692.43 550.23 676.03 547.01 660.98 542.02 C 645.92 537.04 631.51 531.64 617.31 525.69 C 603.11 519.75 589.53 513.77 576.32 506.68 C 563.11 499.59 550.19 492.03 537.77 484.23 C 525.35 476.43 513.86 468.33 502.25 459.75 C 490.65 451.17 480.05 442.25 469.25 432.75 C 458.45 423.26 448.75 413.90 438.75 403.25 C 428.75 392.59 420.94 381.65 412.08 369.92 C 403.23 358.18 395.47 345.97 388.08 332.92 C 380.69 319.86 374.47 306.70 368.68 292.32 C 362.88 277.94 357.41 263.45 353.07 247.93 C 348.74 232.40 346.10 214.32 343.00 198.00 C 339.91 181.67 341.03 163.95 353.25 151.25 C 365.47 138.55 383.06 137.75 399.22 140.78 C 415.39 143.81 432.86 146.99 448.07 151.93 C 463.29 156.87 478.50 160.98 492.68 167.32 C 506.86 173.66 519.96 179.66 533.08 186.92 C 546.19 194.19 558.17 202.48 570.23 210.77 C 582.29 219.06 593.15 227.41 604.23 236.77 C 615.31 246.13 624.18 256.22 634.75 266.25 C 645.33 276.28 654.22 286.45 663.75 297.25 C 673.28 308.05 681.60 319.13 690.30 330.70 C 699.00 342.26 706.99 354.64 715.25 366.75 C 723.52 378.85 729.27 392.38 736.92 405.08 C 744.58 417.77 748.84 433.75 754.92 447.08 C 761.01 460.40 765.14 477.02 772.77 489.23 C 780.41 501.44 782.11 520.79 793.00 530.00
M 1393.00 523.00 
C 1396.19 539.51 1393.24 557.50 1394.00 575.00 C 1394.76 592.50 1393.68 611.36 1394.00 629.00 C 1394.32 646.64 1393.92 664.33 1394.00 682.00 C 1394.08 699.67 1394.10 718.42 1394.00 736.00 C 1393.90 753.58 1395.25 772.05 1392.00 788.00
C 1388.70 823.16 1393.45 865.28 1392.00 900.00 C 1390.55 934.72 1388.39 971.18 1382.00 1003.00 C 1375.62 1034.83 1368.70 1064.37 1359.22 1093.22 C 1349.74 1122.07 1338.73 1147.06 1326.23 1173.23 C 1313.73 1199.40 1301.45 1222.72 1286.08 1246.08 C 1270.71 1269.44 1255.40 1289.93 1238.70 1311.70 C 1221.99 1333.47 1204.26 1351.45 1186.00 1372.00
C 1179.63 1380.92 1171.00 1389.15 1162.75 1396.75 C 1154.51 1404.36 1147.13 1414.61 1138.00 1421.00
C 1128.03 1427.98 1119.50 1436.82 1110.30 1445.30 C 1101.11 1453.79 1091.36 1460.42 1082.25 1469.25 C 1073.13 1478.08 1058.01 1486.78 1049.75 1473.25 C 1041.49 1459.72 1038.71 1452.05 1032.67 1438.33 C 1026.64 1424.61 1025.76 1411.44 1035.92 1400.92 C 1046.07 1390.40 1048.70 1380.68 1056.92 1369.92 C 1065.15 1359.17 1069.63 1348.71 1076.30 1337.30 C 1082.98 1325.89 1088.04 1314.92 1093.92 1302.92 C 1099.80 1290.93 1104.16 1278.77 1108.98 1265.98 C 1113.79 1253.18 1118.01 1240.49 1121.78 1226.78 C 1125.55 1213.06 1128.19 1198.32 1130.98 1183.98 C 1133.76 1169.63 1135.61 1152.85 1137.00 1138.00
C 1137.44 1133.28 1137.27 1128.10 1138.00 1124.00
C 1138.94 1110.21 1139.21 1095.78 1138.00 1082.00
C 1136.55 1074.86 1136.60 1065.59 1136.00 1058.00
C 1133.79 1030.17 1130.65 1003.89 1126.00 977.00
C 1142.13 974.10 1161.16 969.75 1176.22 964.22 C 1191.28 958.70 1205.88 952.32 1219.08 944.08 C 1232.29 935.84 1244.32 928.48 1255.25 917.25 C 1266.18 906.01 1276.88 897.38 1285.92 884.92 C 1294.95 872.46 1303.78 859.84 1308.78 844.78 C 1313.77 829.71 1322.49 812.79 1322.99 795.99 C 1323.49 779.19 1333.91 762.23 1335.99 745.99 C 1338.07 729.76 1336.89 705.75 1324.25 694.75 C 1311.61 683.75 1304.07 671.78 1299.69 656.31 C 1295.31 640.83 1285.78 627.86 1279.25 613.75 C 1272.72 599.64 1264.03 587.13 1255.70 574.30 C 1247.37 561.48 1238.30 550.32 1228.25 538.75 C 1218.20 527.19 1208.13 517.81 1197.25 506.75 C 1186.37 495.69 1175.29 486.98 1162.92 478.08 C 1150.54 469.19 1138.30 460.74 1124.78 453.22 C 1111.26 445.71 1098.12 437.77 1083.32 431.68 C 1068.52 425.59 1054.11 418.62 1038.26 413.74 C 1022.40 408.86 1002.15 405.82 985.00 404.00
C 980.60 360.89 967.08 320.66 952.00 281.00
C 978.20 280.99 1005.68 284.38 1031.00 287.00 C 1056.32 289.62 1081.42 293.22 1106.00 297.00 C 1130.58 300.78 1153.39 306.82 1177.22 311.78 C 1201.05 316.73 1222.23 322.12 1245.22 328.78 C 1268.22 335.44 1287.00 340.87 1310.07 348.93 C 1333.15 356.98 1348.75 362.44 1373.23 371.77 C 1397.71 381.10 1392.23 412.85 1392.00 438.00 C 1391.77 463.15 1391.36 497.49 1393.00 523.00
M 368.00 959.00 
C 351.22 973.06 332.86 991.13 319.00 1008.00
C 294.78 1042.60 269.48 1070.85 251.70 1109.70 C 233.92 1148.55 216.60 1192.05 207.00 1234.00
C 197.94 1225.98 193.58 1214.48 187.08 1203.92 C 180.57 1193.37 174.63 1182.25 169.08 1170.92 C 163.54 1159.59 158.08 1148.81 153.08 1136.92 C 148.07 1125.04 143.39 1112.65 138.75 1100.25 C 134.10 1087.86 130.26 1074.77 126.22 1061.78 C 122.19 1048.79 118.97 1035.73 116.22 1021.78 C 113.47 1007.82 110.20 993.72 108.01 978.99 C 105.81 964.26 104.67 949.42 103.00 934.00 C 101.33 918.58 101.13 901.31 101.00 885.00 C 100.87 868.69 101.25 850.51 101.00 834.00 C 100.75 817.49 101.70 800.75 100.67 784.33 C 99.64 767.91 100.03 750.74 100.00 734.00 C 99.97 717.26 100.02 700.80 100.00 684.00 C 99.98 667.20 100.03 649.83 100.00 633.00 C 99.97 616.17 100.06 598.74 100.00 582.00 C 99.94 565.26 100.12 548.59 100.00 532.00 C 99.88 515.41 100.53 498.19 101.00 482.00 C 101.47 465.81 100.00 447.50 101.00 432.00 C 102.00 416.50 98.43 395.60 101.93 381.93 C 105.42 368.25 116.76 361.96 128.22 357.22 C 139.69 352.49 153.53 349.39 165.67 344.67 C 177.82 339.95 192.14 337.16 204.68 332.68 C 217.21 328.20 229.78 325.12 242.74 320.74 C 255.71 316.37 270.11 315.63 283.03 310.03 C 295.94 304.42 315.13 305.14 318.32 319.68 C 321.52 334.21 330.57 340.10 335.75 352.25 C 340.94 364.39 347.42 374.16 354.30 384.70 C 361.19 395.24 367.45 404.46 374.78 414.22 C 382.10 423.99 389.96 433.01 397.75 442.25 C 405.55 451.48 414.18 459.67 422.75 468.25 C 431.33 476.83 439.66 484.34 448.75 492.25 C 457.85 500.16 468.08 506.72 477.75 514.25 C 487.41 521.79 497.31 527.73 507.75 534.25 C 518.18 540.78 528.50 547.54 539.75 553.25 C 550.99 558.97 562.57 564.23 574.68 569.32 C 586.79 574.41 596.75 579.61 609.69 584.31 C 622.64 589.00 632.65 593.92 647.01 597.99 C 661.37 602.06 650.83 617.95 648.07 631.07 C 645.32 644.20 640.00 658.98 640.00 674.00 C 640.00 689.02 639.26 709.37 640.00 725.00 C 640.74 740.63 637.97 759.56 640.00 775.00 C 642.03 790.44 632.60 799.06 622.25 808.25 C 611.90 817.44 603.64 822.49 591.77 827.77 C 579.90 833.05 569.39 839.28 557.92 844.92 C 546.45 850.56 535.03 856.10 523.77 861.77 C 512.51 867.44 501.53 872.82 490.31 878.31 C 479.08 883.79 467.88 890.01 457.25 896.25 C 446.62 902.49 436.02 908.09 425.78 914.78 C 415.54 921.46 406.57 929.54 396.75 936.75 C 386.94 943.96 377.43 951.05 368.00 959.00
M 194.00 1322.00 
C 202.48 1327.76 196.31 1343.38 199.00 1353.00 C 201.69 1362.62 200.99 1375.11 203.00 1385.00 C 205.01 1394.89 207.63 1405.41 209.99 1415.01 C 212.35 1424.60 215.41 1433.49 218.32 1442.68 C 221.24 1451.87 225.23 1460.53 228.78 1469.22 C 232.32 1477.91 236.21 1485.51 240.26 1493.74 C 244.31 1501.98 249.43 1509.64 253.00 1518.00
C 251.67 1518.00 250.33 1518.00 249.00 1518.00
C 223.70 1522.31 192.59 1513.68 170.93 1504.07 C 149.27 1494.46 135.30 1479.61 121.75 1460.25 C 108.19 1440.90 98.99 1417.32 97.00 1393.00 C 95.01 1368.68 104.55 1344.94 123.70 1328.70 C 142.85 1312.46 172.26 1307.24 194.00 1322.00 Z"/>
</g>
<g id="ID_5" fill="None" fill-opacity="0.0" stroke="#F3F3F3" stroke-opacity="1.00" stroke-width="0.3"><path d="
M 924.00 402.00 
C 921.77 387.13 918.60 370.32 914.93 356.07 C 911.26 341.83 907.51 327.53 902.92 314.08 C 898.34 300.62 892.67 288.36 887.31 275.69 C 881.94 263.03 875.72 251.48 869.25 239.75 C 862.79 228.01 855.53 216.83 847.92 206.08 C 840.31 195.33 833.07 185.29 824.75 175.25 C 816.43 165.21 807.95 156.64 798.75 147.25 C 789.56 137.86 780.70 129.35 770.75 121.25 C 760.80 113.15 750.95 103.53 740.25 96.75 C 729.55 89.98 719.25 79.51 707.22 75.78 C 695.20 72.04 674.44 63.47 662.01 69.01 C 649.58 74.55 646.42 91.89 644.33 105.33 C 642.24 118.77 645.07 143.34 647.02 156.98 C 648.97 170.62 648.56 190.10 657.75 200.25 C 666.94 210.40 675.34 217.82 684.75 227.25 C 694.16 236.68 702.08 245.30 711.25 254.75 C 720.42 264.20 728.46 274.00 737.25 283.75 C 746.03 293.50 753.83 303.40 760.25 314.75 C 766.66 326.10 774.62 336.56 780.70 348.30 C 786.77 360.05 793.68 371.60 799.23 383.77 C 804.77 395.94 811.27 408.48 816.00 421.00
C 851.03 410.97 886.87 403.89 924.00 402.00 Z"/>
</g>
<g id="ID_6" fill="None" fill-opacity="0.0" stroke="#DFDFDF" stroke-opacity="1.00" stroke-width="0.3"><path d="
M 759.00 564.00 
C 761.05 557.16 768.78 549.87 774.25 545.25 C 779.72 540.63 786.18 529.90 793.00 530.00
C 782.11 520.79 780.41 501.44 772.77 489.23 C 765.14 477.02 761.01 460.40 754.92 447.08 C 748.84 433.75 744.58 417.77 736.92 405.08 C 729.27 392.38 723.52 378.85 715.25 366.75 C 706.99 354.64 699.00 342.26 690.30 330.70 C 681.60 319.13 673.28 308.05 663.75 297.25 C 654.22 286.45 645.33 276.28 634.75 266.25 C 624.18 256.22 615.31 246.13 604.23 236.77 C 593.15 227.41 582.29 219.06 570.23 210.77 C 558.17 202.48 546.19 194.19 533.08 186.92 C 519.96 179.66 506.86 173.66 492.68 167.32 C 478.50 160.98 463.29 156.87 448.07 151.93 C 432.86 146.99 415.39 143.81 399.22 140.78 C 383.06 137.75 365.47 138.55 353.25 151.25 C 341.03 163.95 339.91 181.67 343.00 198.00 C 346.10 214.32 348.74 232.40 353.07 247.93 C 357.41 263.45 362.88 277.94 368.68 292.32 C 374.47 306.70 380.69 319.86 388.08 332.92 C 395.47 345.97 403.23 358.18 412.08 369.92 C 420.94 381.65 428.75 392.59 438.75 403.25 C 448.75 413.90 458.45 423.26 469.25 432.75 C 480.05 442.25 490.65 451.17 502.25 459.75 C 513.86 468.33 525.35 476.43 537.77 484.23 C 550.19 492.03 563.11 499.59 576.32 506.68 C 589.53 513.77 603.11 519.75 617.31 525.69 C 631.51 531.64 645.92 537.04 660.98 542.02 C 676.03 547.01 692.43 550.23 708.00 555.00 C 723.57 559.78 743.45 558.68 759.00 564.00 Z"/>
</g>
<g id="ID_7" fill="None" fill-opacity="0.0" stroke="#C8C8C8" stroke-opacity="1.00" stroke-width="0.3"><path d="
M 1136.00 1058.00 
C 1137.33 1065.44 1137.27 1073.74 1138.00 1082.00
C 1139.21 1095.78 1138.94 1110.21 1138.00 1124.00
C 1137.67 1128.81 1137.88 1133.84 1137.00 1138.00
C 1135.61 1152.85 1133.76 1169.63 1130.98 1183.98 C 1128.19 1198.32 1125.55 1213.06 1121.78 1226.78 C 1118.01 1240.49 1113.79 1253.18 1108.98 1265.98 C 1104.16 1278.77 1099.80 1290.93 1093.92 1302.92 C 1088.04 1314.92 1082.98 1325.89 1076.30 1337.30 C 1069.63 1348.71 1065.15 1359.17 1056.92 1369.92 C 1048.70 1380.68 1046.07 1390.40 1035.92 1400.92 C 1025.76 1411.44 1026.64 1424.61 1032.67 1438.33 C 1038.71 1452.05 1041.49 1459.72 1049.75 1473.25 C 1058.01 1486.78 1073.13 1478.08 1082.25 1469.25 C 1091.36 1460.42 1101.11 1453.79 1110.30 1445.30 C 1119.50 1436.82 1128.03 1427.98 1138.00 1421.00
C 1154.84 1407.17 1171.72 1388.07 1186.00 1372.00
C 1204.26 1351.45 1221.99 1333.47 1238.70 1311.70 C 1255.40 1289.93 1270.71 1269.44 1286.08 1246.08 C 1301.45 1222.72 1313.73 1199.40 1326.23 1173.23 C 1338.73 1147.06 1349.74 1122.07 1359.22 1093.22 C 1368.70 1064.37 1375.62 1034.83 1382.00 1003.00 C 1388.39 971.18 1390.55 934.72 1392.00 900.00 C 1393.45 865.28 1388.70 823.16 1392.00 788.00
C 1396.04 744.89 1393.33 699.71 1393.00 656.00 C 1392.67 612.29 1396.46 566.61 1393.00 523.00
C 1391.36 497.49 1391.77 463.15 1392.00 438.00 C 1392.23 412.85 1397.71 381.10 1373.23 371.77 C 1348.75 362.44 1333.15 356.98 1310.07 348.93 C 1287.00 340.87 1268.22 335.44 1245.22 328.78 C 1222.23 322.12 1201.05 316.73 1177.22 311.78 C 1153.39 306.82 1130.58 300.78 1106.00 297.00 C 1081.42 293.22 1056.32 289.62 1031.00 287.00 C 1005.68 284.38 978.20 280.99 952.00 281.00
C 967.08 320.66 980.60 360.89 985.00 404.00
C 1002.15 405.82 1022.40 408.86 1038.26 413.74 C 1054.11 418.62 1068.52 425.59 1083.32 431.68 C 1098.12 437.77 1111.26 445.71 1124.78 453.22 C 1138.30 460.74 1150.54 469.19 1162.92 478.08 C 1175.29 486.98 1186.37 495.69 1197.25 506.75 C 1208.13 517.81 1218.20 527.19 1228.25 538.75 C 1238.30 550.32 1247.37 561.48 1255.70 574.30 C 1264.03 587.13 1272.72 599.64 1279.25 613.75 C 1285.78 627.86 1295.31 640.83 1299.69 656.31 C 1304.07 671.78 1311.61 683.75 1324.25 694.75 C 1336.89 705.75 1338.07 729.76 1335.99 745.99 C 1333.91 762.23 1323.49 779.19 1322.99 795.99 C 1322.49 812.79 1313.77 829.71 1308.78 844.78 C 1303.78 859.84 1294.95 872.46 1285.92 884.92 C 1276.88 897.38 1266.18 906.01 1255.25 917.25 C 1244.32 928.48 1232.29 935.84 1219.08 944.08 C 1205.88 952.32 1191.28 958.70 1176.22 964.22 C 1161.16 969.75 1142.13 974.10 1126.00 977.00
C 1130.65 1003.89 1133.79 1030.17 1136.00 1058.00 Z"/>
</g>
<g id="ID_8" fill="None" fill-opacity="0.0" stroke="#C7C7C7" stroke-opacity="1.00" stroke-width="0.3"><path d="
M 319.00 1008.00 
C 325.49 998.73 334.76 990.87 342.75 982.75 C 350.74 974.63 358.86 965.53 368.00 959.00
C 377.43 951.05 386.94 943.96 396.75 936.75 C 406.57 929.54 415.54 921.46 425.78 914.78 C 436.02 908.09 446.62 902.49 457.25 896.25 C 467.88 890.01 479.08 883.79 490.31 878.31 C 501.53 872.82 512.51 867.44 523.77 861.77 C 535.03 856.10 546.45 850.56 557.92 844.92 C 569.39 839.28 579.90 833.05 591.77 827.77 C 603.64 822.49 611.90 817.44 622.25 808.25 C 632.60 799.06 642.03 790.44 640.00 775.00 C 637.97 759.56 640.74 740.63 640.00 725.00 C 639.26 709.37 640.00 689.02 640.00 674.00 C 640.00 658.98 645.32 644.20 648.07 631.07 C 650.83 617.95 661.37 602.06 647.01 597.99 C 632.65 593.92 622.64 589.00 609.69 584.31 C 596.75 579.61 586.79 574.41 574.68 569.32 C 562.57 564.23 550.99 558.97 539.75 553.25 C 528.50 547.54 518.18 540.78 507.75 534.25 C 497.31 527.73 487.41 521.79 477.75 514.25 C 468.08 506.72 457.85 500.16 448.75 492.25 C 439.66 484.34 431.33 476.83 422.75 468.25 C 414.18 459.67 405.55 451.48 397.75 442.25 C 389.96 433.01 382.10 423.99 374.78 414.22 C 367.45 404.46 361.19 395.24 354.30 384.70 C 347.42 374.16 340.94 364.39 335.75 352.25 C 330.57 340.10 321.52 334.21 318.32 319.68 C 315.13 305.14 295.94 304.42 283.03 310.03 C 270.11 315.63 255.71 316.37 242.74 320.74 C 229.78 325.12 217.21 328.20 204.68 332.68 C 192.14 337.16 177.82 339.95 165.67 344.67 C 153.53 349.39 139.69 352.49 128.22 357.22 C 116.76 361.96 105.42 368.25 101.93 381.93 C 98.43 395.60 102.00 416.50 101.00 432.00 C 100.00 447.50 101.47 465.81 101.00 482.00 C 100.53 498.19 99.88 515.41 100.00 532.00 C 100.12 548.59 99.94 565.26 100.00 582.00 C 100.06 598.74 99.97 616.17 100.00 633.00 C 100.03 649.83 99.98 667.20 100.00 684.00 C 100.02 700.80 99.97 717.26 100.00 734.00 C 100.03 750.74 99.64 767.91 100.67 784.33 C 101.70 800.75 100.75 817.49 101.00 834.00 C 101.25 850.51 100.87 868.69 101.00 885.00 C 101.13 901.31 101.33 918.58 103.00 934.00 C 104.67 949.42 105.81 964.26 108.01 978.99 C 110.20 993.72 113.47 1007.82 116.22 1021.78 C 118.97 1035.73 122.19 1048.79 126.22 1061.78 C 130.26 1074.77 134.10 1087.86 138.75 1100.25 C 143.39 1112.65 148.07 1125.04 153.08 1136.92 C 158.08 1148.81 163.54 1159.59 169.08 1170.92 C 174.63 1182.25 180.57 1193.37 187.08 1203.92 C 193.58 1214.48 197.94 1225.98 207.00 1234.00
C 216.60 1192.05 233.92 1148.55 251.70 1109.70 C 269.48 1070.85 294.78 1042.60 319.00 1008.00 Z"/>
</g>
<g id="ID_9" fill="None" fill-opacity="0.0" stroke="#818181" stroke-opacity="1.00" stroke-width="0.3"><path d="
M 45.00 434.00 
C 45.58 428.05 46.00 420.71 46.00 414.00
C 45.42 419.95 45.00 427.29 45.00 434.00 Z"/>
</g>
<g id="ID_10" fill="None" fill-opacity="0.0" stroke="#BABABA" stroke-opacity="1.00" stroke-width="0.3"><path d="
M 793.00 530.00 
C 786.18 529.90 779.72 540.63 774.25 545.25 C 768.78 549.87 761.05 557.16 759.00 564.00
C 772.05 568.46 778.82 581.59 776.98 594.98 C 775.13 608.36 763.51 615.02 752.00 618.00
C 746.08 619.53 738.63 619.00 732.00 619.00
C 725.76 618.38 720.02 619.83 714.00 620.00
C 692.31 655.97 697.00 698.64 697.00 740.00
C 698.37 754.13 698.36 770.94 697.00 785.00
C 695.46 817.57 669.12 844.76 641.70 860.70 C 614.27 876.63 583.91 890.63 556.23 906.23 C 528.55 921.83 499.36 935.54 472.70 952.70 C 446.03 969.85 421.27 986.50 397.75 1008.75 C 374.23 1031.00 354.99 1051.94 336.30 1078.30 C 317.61 1104.67 303.70 1131.27 290.32 1162.32 C 276.95 1193.37 268.84 1230.38 261.99 1264.99 C 255.14 1299.61 254.39 1349.53 262.01 1383.99 C 269.63 1418.45 278.06 1450.13 297.08 1478.92 C 316.10 1507.72 332.14 1526.64 362.77 1544.23 C 393.40 1561.82 423.33 1572.51 461.00 1577.00 C 498.67 1581.49 546.12 1579.92 587.00 1581.00 C 627.88 1582.08 675.95 1580.35 718.00 1581.00 C 760.05 1581.65 804.97 1580.63 847.00 1580.00
C 851.69 1563.25 838.74 1548.71 825.70 1538.30 C 812.66 1527.90 792.60 1527.06 778.02 1519.98 C 763.45 1512.89 734.12 1523.32 725.33 1506.67 C 716.54 1490.02 738.84 1476.10 747.75 1463.75 C 756.67 1451.40 766.03 1438.10 772.70 1422.70 C 779.36 1407.29 783.40 1386.41 784.22 1368.22 C 785.04 1350.03 784.79 1324.31 779.78 1307.22 C 774.76 1290.14 768.61 1275.79 759.92 1261.08 C 751.23 1246.37 742.72 1236.36 731.25 1223.75 C 719.78 1211.14 707.81 1204.12 693.70 1195.30 C 679.58 1186.49 664.20 1180.99 648.68 1174.32 C 633.15 1167.66 613.62 1167.50 599.25 1157.75 C 584.88 1148.01 588.92 1118.67 608.00 1119.00 C 627.08 1119.33 650.55 1121.38 667.93 1126.07 C 685.30 1130.77 700.79 1136.50 715.92 1144.08 C 731.05 1151.66 743.03 1159.91 755.75 1170.25 C 768.47 1180.58 778.95 1189.87 789.25 1202.75 C 799.54 1215.64 807.46 1227.55 815.70 1242.31 C 823.93 1257.06 829.50 1271.81 835.68 1288.32 C 841.85 1304.84 844.74 1323.71 848.00 1342.00 C 851.26 1360.29 848.64 1388.17 850.02 1406.98 C 851.41 1425.79 857.41 1443.70 862.22 1460.78 C 867.04 1477.86 874.38 1491.49 882.08 1506.92 C 889.77 1522.35 896.42 1533.51 908.75 1546.25 C 921.08 1558.99 930.67 1566.09 947.32 1573.68 C 963.97 1581.27 985.90 1581.43 1006.00 1581.00 C 1026.10 1580.57 1051.43 1581.32 1072.00 1581.00
C 1076.88 1556.74 1057.93 1539.76 1039.23 1531.77 C 1020.53 1523.78 1007.31 1509.54 996.77 1492.23 C 986.23 1474.92 980.26 1451.99 974.99 1432.01 C 969.72 1412.03 963.18 1383.72 962.00 1363.00 C 960.82 1342.28 950.10 1308.85 972.32 1297.32 C 994.54 1285.80 1009.66 1321.61 1010.00 1338.00
C 1020.27 1328.98 1024.62 1316.87 1031.08 1305.08 C 1037.53 1293.28 1042.43 1281.85 1048.07 1269.07 C 1053.72 1256.30 1057.54 1242.76 1062.08 1229.08 C 1066.61 1215.39 1070.17 1201.90 1073.01 1187.01 C 1075.85 1172.12 1078.65 1155.90 1080.00 1140.00 C 1081.35 1124.10 1082.30 1105.65 1082.00 1089.00 C 1081.70 1072.36 1078.13 1056.22 1077.33 1039.67 C 1076.53 1023.12 1070.07 1011.57 1069.33 994.67 C 1068.59 977.77 1047.15 980.81 1037.75 972.25 C 1028.35 963.69 1026.08 942.44 1038.25 935.25 C 1050.42 928.06 1074.76 935.23 1088.99 931.99 C 1103.22 928.76 1120.39 928.37 1133.98 923.98 C 1147.56 919.58 1161.78 916.16 1174.31 910.31 C 1186.83 904.45 1200.01 900.95 1208.00 891.00
C 1206.05 890.13 1204.06 890.43 1202.00 890.00
C 1197.30 889.57 1192.06 889.66 1188.00 889.00
C 1175.46 888.15 1161.77 882.81 1151.08 876.92 C 1140.39 871.04 1132.33 864.78 1124.75 855.25 C 1117.18 845.71 1111.18 835.84 1107.77 824.23 C 1104.37 812.62 1106.65 800.78 1120.32 794.32 C 1134.00 787.87 1144.26 799.59 1149.23 810.77 C 1154.20 821.95 1162.03 828.53 1171.30 836.70 C 1180.58 844.86 1196.54 844.96 1209.00 847.00 C 1221.46 849.04 1237.97 845.85 1248.25 838.25 C 1258.54 830.66 1263.46 821.48 1267.07 809.07 C 1270.69 796.67 1272.05 779.00 1271.00 765.00
C 1256.33 766.94 1238.89 764.21 1227.70 756.30 C 1216.50 748.40 1211.19 730.58 1219.23 719.23 C 1227.28 707.88 1249.05 712.63 1261.00 709.00
C 1250.08 677.00 1235.78 644.31 1216.77 616.23 C 1197.76 588.15 1181.48 564.44 1155.25 540.75 C 1129.01 517.07 1105.80 501.00 1072.70 486.31 C 1039.59 471.61 998.86 462.95 960.01 461.99 C 921.16 461.03 875.50 465.17 838.00 475.00
C 842.19 492.18 848.87 509.83 837.92 524.92 C 826.97 540.00 807.15 541.97 793.00 530.00
M 1042.00 613.00 
C 1067.40 615.46 1090.13 638.80 1089.60 664.74 C 1089.07 690.69 1065.22 714.74 1039.26 713.60 C 1013.29 712.45 989.10 688.43 991.00 662.00 C 992.90 635.57 1013.00 610.19 1042.00 613.00
M 889.00 993.00 
C 899.48 995.32 905.63 1004.88 914.25 1010.75 C 922.87 1016.62 929.73 1000.64 939.23 997.23 C 948.73 993.82 967.65 990.95 979.00 993.00 C 990.35 995.05 998.13 1000.22 1006.25 1008.75 C 1014.37 1017.29 1017.97 1027.49 1020.00 1039.00 C 1022.02 1050.51 1020.02 1065.63 1016.23 1076.23 C 1012.44 1086.82 1006.77 1095.75 1000.75 1104.75 C 994.74 1113.75 988.49 1120.03 980.75 1127.75 C 973.01 1135.47 965.98 1141.97 957.75 1148.75 C 949.53 1155.53 942.05 1160.45 934.25 1168.25 C 926.46 1176.06 915.56 1182.33 907.75 1172.25 C 899.94 1162.16 893.46 1159.51 885.75 1151.25 C 878.05 1142.99 869.31 1139.20 862.25 1130.75 C 855.18 1122.31 847.60 1117.63 840.75 1109.25 C 833.90 1100.87 828.11 1092.55 823.08 1082.92 C 818.04 1073.30 813.73 1060.36 814.00 1049.00 C 814.27 1037.64 817.07 1023.78 823.92 1014.92 C 830.78 1006.06 837.64 999.53 848.08 996.08 C 858.51 992.62 877.24 990.40 889.00 993.00 Z"/>
</g>
<g id="ID_11" fill="None" fill-opacity="0.0" stroke="#7C7C7C" stroke-opacity="1.00" stroke-width="0.3"><path d="
M 1392.00 788.00 
C 1395.25 772.05 1393.90 753.58 1394.00 736.00 C 1394.10 718.42 1394.08 699.67 1394.00 682.00 C 1393.92 664.33 1394.32 646.64 1394.00 629.00 C 1393.68 611.36 1394.76 592.50 1394.00 575.00 C 1393.24 557.50 1396.19 539.51 1393.00 523.00
C 1396.46 566.61 1392.67 612.29 1393.00 656.00 C 1393.33 699.71 1396.04 744.89 1392.00 788.00 Z"/>
</g>
<g id="ID_12" fill="None" fill-opacity="0.0" stroke="#6D6D6D" stroke-opacity="1.00" stroke-width="0.3"><path d="
M 1451.00 746.00 
C 1454.36 711.32 1452.00 673.59 1452.00 638.00 C 1452.00 602.41 1454.36 564.75 1451.00 530.00
C 1451.00 602.00 1451.00 674.00 1451.00 746.00 Z"/>
</g>
<g id="ID_13" fill="None" fill-opacity="0.0" stroke="#222222" stroke-opacity="1.00" stroke-width="0.3"><path d="
M 1042.00 613.00 
C 1013.00 610.19 992.90 635.57 991.00 662.00 C 989.10 688.43 1013.29 712.45 1039.26 713.60 C 1065.22 714.74 1089.07 690.69 1089.60 664.74 C 1090.13 638.80 1067.40 615.46 1042.00 613.00 Z"/>
</g>
<g id="ID_14" fill="None" fill-opacity="0.0" stroke="#626262" stroke-opacity="1.00" stroke-width="0.3"><path d="
M 732.00 619.00 
C 738.63 619.00 746.08 619.53 752.00 618.00
C 745.64 618.85 737.83 618.44 732.00 619.00 Z"/>
</g>
<g id="ID_15" fill="None" fill-opacity="0.0" stroke="#767676" stroke-opacity="1.00" stroke-width="0.3"><path d="
M 697.00 785.00 
C 698.36 770.94 698.37 754.13 697.00 740.00
C 697.00 755.00 697.00 770.00 697.00 785.00 Z"/>
</g>
<g id="ID_16" fill="None" fill-opacity="0.0" stroke="#818181" stroke-opacity="1.00" stroke-width="0.3"><path d="
M 46.00 872.00 
C 46.00 864.30 45.68 856.01 45.00 849.00
C 45.00 856.70 45.32 864.99 46.00 872.00 Z"/>
</g>
<g id="ID_17" fill="None" fill-opacity="0.0" stroke="#6D6D6D" stroke-opacity="1.00" stroke-width="0.3"><path d="
M 1202.00 890.00 
C 1197.85 889.14 1192.82 889.26 1188.00 889.00
C 1192.06 889.66 1197.30 889.57 1202.00 890.00 Z"/>
</g>
<g id="ID_18" fill="None" fill-opacity="0.0" stroke="#6D6D6D" stroke-opacity="1.00" stroke-width="0.3"><path d="
M 319.00 1008.00 
C 332.86 991.13 351.22 973.06 368.00 959.00
C 358.86 965.53 350.74 974.63 342.75 982.75 C 334.76 990.87 325.49 998.73 319.00 1008.00 Z"/>
</g>
<g id="ID_19" fill="None" fill-opacity="0.0" stroke="#979797" stroke-opacity="1.00" stroke-width="0.3"><path d="
M 889.00 993.00 
C 877.24 990.40 858.51 992.62 848.08 996.08 C 837.64 999.53 830.78 1006.06 823.92 1014.92 C 817.07 1023.78 814.27 1037.64 814.00 1049.00 C 813.73 1060.36 818.04 1073.30 823.08 1082.92 C 828.11 1092.55 833.90 1100.87 840.75 1109.25 C 847.60 1117.63 855.18 1122.31 862.25 1130.75 C 869.31 1139.20 878.05 1142.99 885.75 1151.25 C 893.46 1159.51 899.94 1162.16 907.75 1172.25 C 915.56 1182.33 926.46 1176.06 934.25 1168.25 C 942.05 1160.45 949.53 1155.53 957.75 1148.75 C 965.98 1141.97 973.01 1135.47 980.75 1127.75 C 988.49 1120.03 994.74 1113.75 1000.75 1104.75 C 1006.77 1095.75 1012.44 1086.82 1016.23 1076.23 C 1020.02 1065.63 1022.02 1050.51 1020.00 1039.00 C 1017.97 1027.49 1014.37 1017.29 1006.25 1008.75 C 998.13 1000.22 990.35 995.05 979.00 993.00 C 967.65 990.95 948.73 993.82 939.23 997.23 C 929.73 1000.64 922.87 1016.62 914.25 1010.75 C 905.63 1004.88 899.48 995.32 889.00 993.00 Z"/>
</g>
<g id="ID_20" fill="None" fill-opacity="0.0" stroke="#6B6B6B" stroke-opacity="1.00" stroke-width="0.3"><path d="
M 1138.00 1082.00 
C 1137.27 1073.74 1137.33 1065.44 1136.00 1058.00
C 1136.60 1065.59 1136.55 1074.86 1138.00 1082.00 Z"/>
</g>
<g id="ID_21" fill="None" fill-opacity="0.0" stroke="#6E6E6E" stroke-opacity="1.00" stroke-width="0.3"><path d="
M 1137.00 1138.00 
C 1137.88 1133.84 1137.67 1128.81 1138.00 1124.00
C 1137.27 1128.10 1137.44 1133.28 1137.00 1138.00 Z"/>
</g>
<g id="ID_22" fill="None" fill-opacity="0.0" stroke="#BCBCBC" stroke-opacity="1.00" stroke-width="0.3"><path d="
M 249.00 1518.00 
C 253.33 1515.06 243.92 1505.73 242.25 1501.75 C 240.57 1497.78 236.54 1489.90 234.08 1484.92 C 231.61 1479.95 228.39 1473.56 226.08 1467.92 C 223.77 1462.28 220.98 1455.35 218.68 1449.32 C 216.37 1443.30 214.59 1436.73 212.67 1430.33 C 210.76 1423.92 208.61 1417.76 207.02 1410.98 C 205.44 1404.19 203.60 1396.92 202.07 1389.93 C 200.55 1382.94 200.22 1375.18 199.00 1368.00 C 197.78 1360.81 197.33 1353.24 196.00 1346.00 C 194.67 1338.76 198.60 1328.25 194.00 1322.00
C 172.26 1307.24 142.85 1312.46 123.70 1328.70 C 104.55 1344.94 95.01 1368.68 97.00 1393.00 C 98.99 1417.32 108.19 1440.90 121.75 1460.25 C 135.30 1479.61 149.27 1494.46 170.93 1504.07 C 192.59 1513.68 223.70 1522.31 249.00 1518.00 Z"/>
</g>
<g id="ID_23" fill="None" fill-opacity="0.0" stroke="#DBDBDB" stroke-opacity="1.00" stroke-width="0.3"><path d="
M 249.00 1518.00 
C 250.33 1518.00 251.67 1518.00 253.00 1518.00
C 249.43 1509.64 244.31 1501.98 240.26 1493.74 C 236.21 1485.51 232.32 1477.91 228.78 1469.22 C 225.23 1460.53 221.24 1451.87 218.32 1442.68 C 215.41 1433.49 212.35 1424.60 209.99 1415.01 C 207.63 1405.41 205.01 1394.89 203.00 1385.00 C 200.99 1375.11 201.69 1362.62 199.00 1353.00 C 196.31 1343.38 202.48 1327.76 194.00 1322.00
C 198.60 1328.25 194.67 1338.76 196.00 1346.00 C 197.33 1353.24 197.78 1360.81 199.00 1368.00 C 200.22 1375.18 200.55 1382.94 202.07 1389.93 C 203.60 1396.92 205.44 1404.19 207.02 1410.98 C 208.61 1417.76 210.76 1423.92 212.67 1430.33 C 214.59 1436.73 216.37 1443.30 218.68 1449.32 C 220.98 1455.35 223.77 1462.28 226.08 1467.92 C 228.39 1473.56 231.61 1479.95 234.08 1484.92 C 236.54 1489.90 240.57 1497.78 242.25 1501.75 C 243.92 1505.73 253.33 1515.06 249.00 1518.00 Z"/>
</g>
<g id="ID_24" fill="None" fill-opacity="0.0" stroke="#686868" stroke-opacity="1.00" stroke-width="0.3"><path d="
M 1138.00 1421.00 
C 1147.13 1414.61 1154.51 1404.36 1162.75 1396.75 C 1171.00 1389.15 1179.63 1380.92 1186.00 1372.00
C 1171.72 1388.07 1154.84 1407.17 1138.00 1421.00 Z"/>
</g>
<g id="ID_25" fill="None" fill-opacity="0.0" stroke="#A0A0A0" stroke-opacity="1.00" stroke-width="0.3"><path d="
M 1202.00 1434.00 
C 1210.32 1427.03 1217.83 1419.23 1225.00 1411.00
C 1215.21 1417.99 1208.99 1424.21 1202.00 1434.00 Z"/>
</g>
<g id="ID_26" fill="None" fill-opacity="0.0" stroke="#ABABAB" stroke-opacity="1.00" stroke-width="0.3"><path d="
M 108.00 1526.00 
C 104.97 1522.09 103.49 1517.98 99.75 1514.25 C 96.02 1510.52 91.91 1509.02 88.00 1506.00
C 93.66 1513.54 100.41 1520.30 108.00 1526.00 Z"/>
</g>
<g id="ID_27" fill="#000000" fill-opacity="0.00" stroke="None">
<path d="
M 0.00 1727.00 
L 1.00 1727.00
C 1.00 1151.33 1.00 575.67 1.00 0.00
L 0.00 0.00
L 0.00 1727.00 Z"/>
</g>
<g id="ID_28" fill="#EAEAEA" fill-opacity="1.00" stroke="None">
<path d="
M 1.00 1727.00 
L 1481.00 1727.00
C 1480.98 1151.33 1481.02 575.67 1481.00 0.00
L 1.00 0.00
C 1.00 575.67 1.00 1151.33 1.00 1727.00
M 1451.00 530.00 
C 1454.36 564.75 1452.00 602.41 1452.00 638.00 C 1452.00 673.59 1454.36 711.32 1451.00 746.00
C 1451.00 781.60 1450.49 821.87 1451.00 857.00 C 1451.51 892.13 1449.61 929.55 1445.00 962.00 C 1440.39 994.45 1433.96 1025.40 1426.22 1055.22 C 1418.49 1085.04 1410.69 1112.80 1400.03 1140.03 C 1389.36 1167.26 1378.69 1191.87 1365.70 1216.70 C 1352.70 1241.52 1339.97 1265.31 1324.70 1287.70 C 1309.42 1310.08 1295.63 1332.11 1277.75 1351.75 C 1259.88 1371.39 1246.90 1395.35 1225.00 1411.00
C 1217.83 1419.23 1210.32 1427.03 1202.00 1434.00
C 1190.04 1450.75 1171.95 1463.10 1157.75 1477.75 C 1143.55 1492.40 1125.65 1505.64 1110.00 1518.00
C 1142.32 1550.13 1136.19 1628.04 1082.78 1634.78 C 1029.36 1641.52 966.55 1643.79 918.00 1622.00
C 905.19 1630.85 892.60 1638.12 878.77 1645.77 C 864.94 1653.42 850.79 1660.07 836.31 1667.31 C 821.82 1674.54 807.83 1680.00 792.32 1686.32 C 776.81 1692.65 761.51 1699.98 744.00 1702.00 C 726.49 1704.02 707.59 1698.31 692.77 1690.23 C 677.95 1682.14 663.51 1678.99 648.92 1670.08 C 634.34 1661.16 621.87 1659.18 607.31 1648.70 C 592.74 1638.21 571.91 1638.31 553.00 1639.00 C 534.09 1639.69 512.59 1636.18 493.93 1635.07 C 475.27 1633.96 453.69 1631.87 435.93 1629.07 C 418.16 1626.27 401.89 1622.05 385.78 1616.22 C 369.67 1610.40 356.08 1604.61 341.32 1596.68 C 326.56 1588.75 317.17 1581.86 303.25 1571.75 C 289.33 1561.64 268.89 1572.09 251.33 1572.33 C 233.77 1572.57 209.99 1573.14 193.33 1568.67 C 176.67 1564.20 161.34 1559.17 146.75 1551.25 C 132.17 1543.32 120.39 1536.77 108.00 1526.00
C 100.41 1520.30 93.66 1513.54 88.00 1506.00
C 67.11 1478.20 49.24 1450.91 45.67 1415.33 C 42.10 1379.75 46.93 1336.04 68.25 1307.25 C 89.58 1278.47 120.93 1264.65 154.00 1259.00
C 84.62 1142.54 42.18 1011.87 46.00 872.00
C 45.32 864.99 45.00 856.70 45.00 849.00
C 45.00 711.09 45.00 571.90 45.00 434.00
C 45.00 427.29 45.42 419.95 46.00 414.00
C 46.00 398.59 47.77 380.02 47.00 365.00 C 46.23 349.98 54.16 340.64 63.25 330.25 C 72.33 319.85 81.10 314.38 93.07 309.07 C 105.04 303.77 117.56 299.61 130.08 295.08 C 142.59 290.54 155.55 286.91 168.23 282.23 C 180.91 277.55 195.16 275.62 208.01 271.01 C 220.85 266.40 234.57 263.95 247.68 259.68 C 260.79 255.41 275.86 255.20 288.67 249.67 C 301.48 244.15 289.47 224.49 289.07 211.93 C 288.68 199.37 286.24 178.05 288.78 164.78 C 291.32 151.51 292.63 136.54 300.30 125.30 C 307.98 114.06 313.44 106.45 325.23 99.23 C 337.03 92.01 349.03 88.63 363.02 86.02 C 377.02 83.42 396.52 83.73 411.01 84.99 C 425.50 86.26 441.65 88.01 455.01 91.99 C 468.36 95.98 481.07 100.09 493.69 104.31 C 506.31 108.52 517.52 113.99 529.23 118.77 C 540.94 123.55 552.63 130.21 563.25 135.75 C 573.87 141.30 590.66 155.47 591.00 139.00 C 591.34 122.53 593.38 106.76 594.78 91.78 C 596.18 76.80 597.91 62.59 604.32 50.32 C 610.73 38.05 616.76 30.61 628.25 23.25 C 639.73 15.88 654.20 12.84 668.00 12.00 C 681.80 11.16 698.74 16.03 711.23 19.77 C 723.72 23.52 735.28 28.29 746.23 34.77 C 757.18 41.26 767.52 47.20 777.70 54.30 C 787.87 61.40 797.27 68.51 806.75 76.25 C 816.23 83.99 824.83 91.89 833.75 100.25 C 842.67 108.61 850.38 117.62 858.25 126.75 C 866.13 135.87 873.24 145.76 880.75 155.25 C 888.26 164.74 895.12 174.93 902.25 184.75 C 909.38 194.56 917.18 204.53 923.00 215.00
C 954.23 217.45 988.09 220.25 1018.67 224.33 C 1049.25 228.41 1080.33 232.68 1110.00 238.00 C 1139.68 243.32 1168.64 250.07 1197.22 256.78 C 1225.80 263.49 1252.78 270.06 1280.08 278.92 C 1307.37 287.79 1333.37 293.16 1359.68 304.32 C 1385.99 315.48 1410.12 316.25 1432.75 337.25 C 1455.38 358.24 1451.26 392.72 1451.00 424.00 C 1450.74 455.28 1451.20 497.70 1451.00 530.00 Z"/>
</g>
<g id="ID_29" fill="#000000" fill-opacity="0.00" stroke="None">
<path d="
M 1481.00 1727.00 
L 1482.00 1727.00
L 1482.00 0.00
L 1481.00 0.00
C 1481.02 575.67 1480.98 1151.33 1481.00 1727.00 Z"/>
</g>
<g id="ID_30" fill="#222222" fill-opacity="1.00" stroke="None">
<path d="
M 46.00 414.00 
C 46.00 420.71 45.58 428.05 45.00 434.00
C 45.00 571.90 45.00 711.09 45.00 849.00
C 45.68 856.01 46.00 864.30 46.00 872.00
C 42.18 1011.87 84.62 1142.54 154.00 1259.00
C 120.93 1264.65 89.58 1278.47 68.25 1307.25 C 46.93 1336.04 42.10 1379.75 45.67 1415.33 C 49.24 1450.91 67.11 1478.20 88.00 1506.00
C 91.91 1509.02 96.02 1510.52 99.75 1514.25 C 103.49 1517.98 104.97 1522.09 108.00 1526.00
C 120.39 1536.77 132.17 1543.32 146.75 1551.25 C 161.34 1559.17 176.67 1564.20 193.33 1568.67 C 209.99 1573.14 233.77 1572.57 251.33 1572.33 C 268.89 1572.09 289.33 1561.64 303.25 1571.75 C 317.17 1581.86 326.56 1588.75 341.32 1596.68 C 356.08 1604.61 369.67 1610.40 385.78 1616.22 C 401.89 1622.05 418.16 1626.27 435.93 1629.07 C 453.69 1631.87 475.27 1633.96 493.93 1635.07 C 512.59 1636.18 534.09 1639.69 553.00 1639.00 C 571.91 1638.31 592.74 1638.21 607.31 1648.70 C 621.87 1659.18 634.34 1661.16 648.92 1670.08 C 663.51 1678.99 677.95 1682.14 692.77 1690.23 C 707.59 1698.31 726.49 1704.02 744.00 1702.00 C 761.51 1699.98 776.81 1692.65 792.32 1686.32 C 807.83 1680.00 821.82 1674.54 836.31 1667.31 C 850.79 1660.07 864.94 1653.42 878.77 1645.77 C 892.60 1638.12 905.19 1630.85 918.00 1622.00
C 966.55 1643.79 1029.36 1641.52 1082.78 1634.78 C 1136.19 1628.04 1142.32 1550.13 1110.00 1518.00
C 1125.65 1505.64 1143.55 1492.40 1157.75 1477.75 C 1171.95 1463.10 1190.04 1450.75 1202.00 1434.00
C 1208.99 1424.21 1215.21 1417.99 1225.00 1411.00
C 1246.90 1395.35 1259.88 1371.39 1277.75 1351.75 C 1295.63 1332.11 1309.42 1310.08 1324.70 1287.70 C 1339.97 1265.31 1352.70 1241.52 1365.70 1216.70 C 1378.69 1191.87 1389.36 1167.26 1400.03 1140.03 C 1410.69 1112.80 1418.49 1085.04 1426.22 1055.22 C 1433.96 1025.40 1440.39 994.45 1445.00 962.00 C 1449.61 929.55 1451.51 892.13 1451.00 857.00 C 1450.49 821.87 1451.00 781.60 1451.00 746.00
C 1451.00 674.00 1451.00 602.00 1451.00 530.00
C 1451.20 497.70 1450.74 455.28 1451.00 424.00 C 1451.26 392.72 1455.38 358.24 1432.75 337.25 C 1410.12 316.25 1385.99 315.48 1359.68 304.32 C 1333.37 293.16 1307.37 287.79 1280.08 278.92 C 1252.78 270.06 1225.80 263.49 1197.22 256.78 C 1168.64 250.07 1139.68 243.32 1110.00 238.00 C 1080.33 232.68 1049.25 228.41 1018.67 224.33 C 988.09 220.25 954.23 217.45 923.00 215.00
C 917.18 204.53 909.38 194.56 902.25 184.75 C 895.12 174.93 888.26 164.74 880.75 155.25 C 873.24 145.76 866.13 135.87 858.25 126.75 C 850.38 117.62 842.67 108.61 833.75 100.25 C 824.83 91.89 816.23 83.99 806.75 76.25 C 797.27 68.51 787.87 61.40 777.70 54.30 C 767.52 47.20 757.18 41.26 746.23 34.77 C 735.28 28.29 723.72 23.52 711.23 19.77 C 698.74 16.03 681.80 11.16 668.00 12.00 C 654.20 12.84 639.73 15.88 628.25 23.25 C 616.76 30.61 610.73 38.05 604.32 50.32 C 597.91 62.59 596.18 76.80 594.78 91.78 C 593.38 106.76 591.34 122.53 591.00 139.00 C 590.66 155.47 573.87 141.30 563.25 135.75 C 552.63 130.21 540.94 123.55 529.23 118.77 C 517.52 113.99 506.31 108.52 493.69 104.31 C 481.07 100.09 468.36 95.98 455.01 91.99 C 441.65 88.01 425.50 86.26 411.01 84.99 C 396.52 83.73 377.02 83.42 363.02 86.02 C 349.03 88.63 337.03 92.01 325.23 99.23 C 313.44 106.45 307.98 114.06 300.30 125.30 C 292.63 136.54 291.32 151.51 288.78 164.78 C 286.24 178.05 288.68 199.37 289.07 211.93 C 289.47 224.49 301.48 244.15 288.67 249.67 C 275.86 255.20 260.79 255.41 247.68 259.68 C 234.57 263.95 220.85 266.40 208.01 271.01 C 195.16 275.62 180.91 277.55 168.23 282.23 C 155.55 286.91 142.59 290.54 130.08 295.08 C 117.56 299.61 105.04 303.77 93.07 309.07 C 81.10 314.38 72.33 319.85 63.25 330.25 C 54.16 340.64 46.23 349.98 47.00 365.00 C 47.77 380.02 46.00 398.59 46.00 414.00
M 924.00 402.00 
C 886.87 403.89 851.03 410.97 816.00 421.00
C 811.27 408.48 804.77 395.94 799.23 383.77 C 793.68 371.60 786.77 360.05 780.70 348.30 C 774.62 336.56 766.66 326.10 760.25 314.75 C 753.83 303.40 746.03 293.50 737.25 283.75 C 728.46 274.00 720.42 264.20 711.25 254.75 C 702.08 245.30 694.16 236.68 684.75 227.25 C 675.34 217.82 666.94 210.40 657.75 200.25 C 648.56 190.10 648.97 170.62 647.02 156.98 C 645.07 143.34 642.24 118.77 644.33 105.33 C 646.42 91.89 649.58 74.55 662.01 69.01 C 674.44 63.47 695.20 72.04 707.22 75.78 C 719.25 79.51 729.55 89.98 740.25 96.75 C 750.95 103.53 760.80 113.15 770.75 121.25 C 780.70 129.35 789.56 137.86 798.75 147.25 C 807.95 156.64 816.43 165.21 824.75 175.25 C 833.07 185.29 840.31 195.33 847.92 206.08 C 855.53 216.83 862.79 228.01 869.25 239.75 C 875.72 251.48 881.94 263.03 887.31 275.69 C 892.67 288.36 898.34 300.62 902.92 314.08 C 907.51 327.53 911.26 341.83 914.93 356.07 C 918.60 370.32 921.77 387.13 924.00 402.00
M 793.00 530.00 
C 807.15 541.97 826.97 540.00 837.92 524.92 C 848.87 509.83 842.19 492.18 838.00 475.00
C 875.50 465.17 921.16 461.03 960.01 461.99 C 998.86 462.95 1039.59 471.61 1072.70 486.31 C 1105.80 501.00 1129.01 517.07 1155.25 540.75 C 1181.48 564.44 1197.76 588.15 1216.77 616.23 C 1235.78 644.31 1250.08 677.00 1261.00 709.00
C 1249.05 712.63 1227.28 707.88 1219.23 719.23 C 1211.19 730.58 1216.50 748.40 1227.70 756.30 C 1238.89 764.21 1256.33 766.94 1271.00 765.00
C 1272.05 779.00 1270.69 796.67 1267.07 809.07 C 1263.46 821.48 1258.54 830.66 1248.25 838.25 C 1237.97 845.85 1221.46 849.04 1209.00 847.00 C 1196.54 844.96 1180.58 844.86 1171.30 836.70 C 1162.03 828.53 1154.20 821.95 1149.23 810.77 C 1144.26 799.59 1134.00 787.87 1120.32 794.32 C 1106.65 800.78 1104.37 812.62 1107.77 824.23 C 1111.18 835.84 1117.18 845.71 1124.75 855.25 C 1132.33 864.78 1140.39 871.04 1151.08 876.92 C 1161.77 882.81 1175.46 888.15 1188.00 889.00
C 1192.82 889.26 1197.85 889.14 1202.00 890.00
C 1204.06 890.43 1206.05 890.13 1208.00 891.00
C 1200.01 900.95 1186.83 904.45 1174.31 910.31 C 1161.78 916.16 1147.56 919.58 1133.98 923.98 C 1120.39 928.37 1103.22 928.76 1088.99 931.99 C 1074.76 935.23 1050.42 928.06 1038.25 935.25 C 1026.08 942.44 1028.35 963.69 1037.75 972.25 C 1047.15 980.81 1068.59 977.77 1069.33 994.67 C 1070.07 1011.57 1076.53 1023.12 1077.33 1039.67 C 1078.13 1056.22 1081.70 1072.36 1082.00 1089.00 C 1082.30 1105.65 1081.35 1124.10 1080.00 1140.00 C 1078.65 1155.90 1075.85 1172.12 1073.01 1187.01 C 1070.17 1201.90 1066.61 1215.39 1062.08 1229.08 C 1057.54 1242.76 1053.72 1256.30 1048.07 1269.07 C 1042.43 1281.85 1037.53 1293.28 1031.08 1305.08 C 1024.62 1316.87 1020.27 1328.98 1010.00 1338.00
C 1009.66 1321.61 994.54 1285.80 972.32 1297.32 C 950.10 1308.85 960.82 1342.28 962.00 1363.00 C 963.18 1383.72 969.72 1412.03 974.99 1432.01 C 980.26 1451.99 986.23 1474.92 996.77 1492.23 C 1007.31 1509.54 1020.53 1523.78 1039.23 1531.77 C 1057.93 1539.76 1076.88 1556.74 1072.00 1581.00
C 1051.43 1581.32 1026.10 1580.57 1006.00 1581.00 C 985.90 1581.43 963.97 1581.27 947.32 1573.68 C 930.67 1566.09 921.08 1558.99 908.75 1546.25 C 896.42 1533.51 889.77 1522.35 882.08 1506.92 C 874.38 1491.49 867.04 1477.86 862.22 1460.78 C 857.41 1443.70 851.41 1425.79 850.02 1406.98 C 848.64 1388.17 851.26 1360.29 848.00 1342.00 C 844.74 1323.71 841.85 1304.84 835.68 1288.32 C 829.50 1271.81 823.93 1257.06 815.70 1242.31 C 807.46 1227.55 799.54 1215.64 789.25 1202.75 C 778.95 1189.87 768.47 1180.58 755.75 1170.25 C 743.03 1159.91 731.05 1151.66 715.92 1144.08 C 700.79 1136.50 685.30 1130.77 667.93 1126.07 C 650.55 1121.38 627.08 1119.33 608.00 1119.00 C 588.92 1118.67 584.88 1148.01 599.25 1157.75 C 613.62 1167.50 633.15 1167.66 648.68 1174.32 C 664.20 1180.99 679.58 1186.49 693.70 1195.30 C 707.81 1204.12 719.78 1211.14 731.25 1223.75 C 742.72 1236.36 751.23 1246.37 759.92 1261.08 C 768.61 1275.79 774.76 1290.14 779.78 1307.22 C 784.79 1324.31 785.04 1350.03 784.22 1368.22 C 783.40 1386.41 779.36 1407.29 772.70 1422.70 C 766.03 1438.10 756.67 1451.40 747.75 1463.75 C 738.84 1476.10 716.54 1490.02 725.33 1506.67 C 734.12 1523.32 763.45 1512.89 778.02 1519.98 C 792.60 1527.06 812.66 1527.90 825.70 1538.30 C 838.74 1548.71 851.69 1563.25 847.00 1580.00
C 804.97 1580.63 760.05 1581.65 718.00 1581.00 C 675.95 1580.35 627.88 1582.08 587.00 1581.00 C 546.12 1579.92 498.67 1581.49 461.00 1577.00 C 423.33 1572.51 393.40 1561.82 362.77 1544.23 C 332.14 1526.64 316.10 1507.72 297.08 1478.92 C 278.06 1450.13 269.63 1418.45 262.01 1383.99 C 254.39 1349.53 255.14 1299.61 261.99 1264.99 C 268.84 1230.38 276.95 1193.37 290.32 1162.32 C 303.70 1131.27 317.61 1104.67 336.30 1078.30 C 354.99 1051.94 374.23 1031.00 397.75 1008.75 C 421.27 986.50 446.03 969.85 472.70 952.70 C 499.36 935.54 528.55 921.83 556.23 906.23 C 583.91 890.63 614.27 876.63 641.70 860.70 C 669.12 844.76 695.46 817.57 697.00 785.00
C 697.00 770.00 697.00 755.00 697.00 740.00
C 697.00 698.64 692.31 655.97 714.00 620.00
C 720.02 619.83 725.76 618.38 732.00 619.00
C 737.83 618.44 745.64 618.85 752.00 618.00
C 763.51 615.02 775.13 608.36 776.98 594.98 C 778.82 581.59 772.05 568.46 759.00 564.00
C 743.45 558.68 723.57 559.78 708.00 555.00 C 692.43 550.23 676.03 547.01 660.98 542.02 C 645.92 537.04 631.51 531.64 617.31 525.69 C 603.11 519.75 589.53 513.77 576.32 506.68 C 563.11 499.59 550.19 492.03 537.77 484.23 C 525.35 476.43 513.86 468.33 502.25 459.75 C 490.65 451.17 480.05 442.25 469.25 432.75 C 458.45 423.26 448.75 413.90 438.75 403.25 C 428.75 392.59 420.94 381.65 412.08 369.92 C 403.23 358.18 395.47 345.97 388.08 332.92 C 380.69 319.86 374.47 306.70 368.68 292.32 C 362.88 277.94 357.41 263.45 353.07 247.93 C 348.74 232.40 346.10 214.32 343.00 198.00 C 339.91 181.67 341.03 163.95 353.25 151.25 C 365.47 138.55 383.06 137.75 399.22 140.78 C 415.39 143.81 432.86 146.99 448.07 151.93 C 463.29 156.87 478.50 160.98 492.68 167.32 C 506.86 173.66 519.96 179.66 533.08 186.92 C 546.19 194.19 558.17 202.48 570.23 210.77 C 582.29 219.06 593.15 227.41 604.23 236.77 C 615.31 246.13 624.18 256.22 634.75 266.25 C 645.33 276.28 654.22 286.45 663.75 297.25 C 673.28 308.05 681.60 319.13 690.30 330.70 C 699.00 342.26 706.99 354.64 715.25 366.75 C 723.52 378.85 729.27 392.38 736.92 405.08 C 744.58 417.77 748.84 433.75 754.92 447.08 C 761.01 460.40 765.14 477.02 772.77 489.23 C 780.41 501.44 782.11 520.79 793.00 530.00
M 1393.00 523.00 
C 1396.19 539.51 1393.24 557.50 1394.00 575.00 C 1394.76 592.50 1393.68 611.36 1394.00 629.00 C 1394.32 646.64 1393.92 664.33 1394.00 682.00 C 1394.08 699.67 1394.10 718.42 1394.00 736.00 C 1393.90 753.58 1395.25 772.05 1392.00 788.00
C 1388.70 823.16 1393.45 865.28 1392.00 900.00 C 1390.55 934.72 1388.39 971.18 1382.00 1003.00 C 1375.62 1034.83 1368.70 1064.37 1359.22 1093.22 C 1349.74 1122.07 1338.73 1147.06 1326.23 1173.23 C 1313.73 1199.40 1301.45 1222.72 1286.08 1246.08 C 1270.71 1269.44 1255.40 1289.93 1238.70 1311.70 C 1221.99 1333.47 1204.26 1351.45 1186.00 1372.00
C 1179.63 1380.92 1171.00 1389.15 1162.75 1396.75 C 1154.51 1404.36 1147.13 1414.61 1138.00 1421.00
C 1128.03 1427.98 1119.50 1436.82 1110.30 1445.30 C 1101.11 1453.79 1091.36 1460.42 1082.25 1469.25 C 1073.13 1478.08 1058.01 1486.78 1049.75 1473.25 C 1041.49 1459.72 1038.71 1452.05 1032.67 1438.33 C 1026.64 1424.61 1025.76 1411.44 1035.92 1400.92 C 1046.07 1390.40 1048.70 1380.68 1056.92 1369.92 C 1065.15 1359.17 1069.63 1348.71 1076.30 1337.30 C 1082.98 1325.89 1088.04 1314.92 1093.92 1302.92 C 1099.80 1290.93 1104.16 1278.77 1108.98 1265.98 C 1113.79 1253.18 1118.01 1240.49 1121.78 1226.78 C 1125.55 1213.06 1128.19 1198.32 1130.98 1183.98 C 1133.76 1169.63 1135.61 1152.85 1137.00 1138.00
C 1137.44 1133.28 1137.27 1128.10 1138.00 1124.00
C 1138.94 1110.21 1139.21 1095.78 1138.00 1082.00
C 1136.55 1074.86 1136.60 1065.59 1136.00 1058.00
C 1133.79 1030.17 1130.65 1003.89 1126.00 977.00
C 1142.13 974.10 1161.16 969.75 1176.22 964.22 C 1191.28 958.70 1205.88 952.32 1219.08 944.08 C 1232.29 935.84 1244.32 928.48 1255.25 917.25 C 1266.18 906.01 1276.88 897.38 1285.92 884.92 C 1294.95 872.46 1303.78 859.84 1308.78 844.78 C 1313.77 829.71 1322.49 812.79 1322.99 795.99 C 1323.49 779.19 1333.91 762.23 1335.99 745.99 C 1338.07 729.76 1336.89 705.75 1324.25 694.75 C 1311.61 683.75 1304.07 671.78 1299.69 656.31 C 1295.31 640.83 1285.78 627.86 1279.25 613.75 C 1272.72 599.64 1264.03 587.13 1255.70 574.30 C 1247.37 561.48 1238.30 550.32 1228.25 538.75 C 1218.20 527.19 1208.13 517.81 1197.25 506.75 C 1186.37 495.69 1175.29 486.98 1162.92 478.08 C 1150.54 469.19 1138.30 460.74 1124.78 453.22 C 1111.26 445.71 1098.12 437.77 1083.32 431.68 C 1068.52 425.59 1054.11 418.62 1038.26 413.74 C 1022.40 408.86 1002.15 405.82 985.00 404.00
C 980.60 360.89 967.08 320.66 952.00 281.00
C 978.20 280.99 1005.68 284.38 1031.00 287.00 C 1056.32 289.62 1081.42 293.22 1106.00 297.00 C 1130.58 300.78 1153.39 306.82 1177.22 311.78 C 1201.05 316.73 1222.23 322.12 1245.22 328.78 C 1268.22 335.44 1287.00 340.87 1310.07 348.93 C 1333.15 356.98 1348.75 362.44 1373.23 371.77 C 1397.71 381.10 1392.23 412.85 1392.00 438.00 C 1391.77 463.15 1391.36 497.49 1393.00 523.00
M 368.00 959.00 
C 351.22 973.06 332.86 991.13 319.00 1008.00
C 294.78 1042.60 269.48 1070.85 251.70 1109.70 C 233.92 1148.55 216.60 1192.05 207.00 1234.00
C 197.94 1225.98 193.58 1214.48 187.08 1203.92 C 180.57 1193.37 174.63 1182.25 169.08 1170.92 C 163.54 1159.59 158.08 1148.81 153.08 1136.92 C 148.07 1125.04 143.39 1112.65 138.75 1100.25 C 134.10 1087.86 130.26 1074.77 126.22 1061.78 C 122.19 1048.79 118.97 1035.73 116.22 1021.78 C 113.47 1007.82 110.20 993.72 108.01 978.99 C 105.81 964.26 104.67 949.42 103.00 934.00 C 101.33 918.58 101.13 901.31 101.00 885.00 C 100.87 868.69 101.25 850.51 101.00 834.00 C 100.75 817.49 101.70 800.75 100.67 784.33 C 99.64 767.91 100.03 750.74 100.00 734.00 C 99.97 717.26 100.02 700.80 100.00 684.00 C 99.98 667.20 100.03 649.83 100.00 633.00 C 99.97 616.17 100.06 598.74 100.00 582.00 C 99.94 565.26 100.12 548.59 100.00 532.00 C 99.88 515.41 100.53 498.19 101.00 482.00 C 101.47 465.81 100.00 447.50 101.00 432.00 C 102.00 416.50 98.43 395.60 101.93 381.93 C 105.42 368.25 116.76 361.96 128.22 357.22 C 139.69 352.49 153.53 349.39 165.67 344.67 C 177.82 339.95 192.14 337.16 204.68 332.68 C 217.21 328.20 229.78 325.12 242.74 320.74 C 255.71 316.37 270.11 315.63 283.03 310.03 C 295.94 304.42 315.13 305.14 318.32 319.68 C 321.52 334.21 330.57 340.10 335.75 352.25 C 340.94 364.39 347.42 374.16 354.30 384.70 C 361.19 395.24 367.45 404.46 374.78 414.22 C 382.10 423.99 389.96 433.01 397.75 442.25 C 405.55 451.48 414.18 459.67 422.75 468.25 C 431.33 476.83 439.66 484.34 448.75 492.25 C 457.85 500.16 468.08 506.72 477.75 514.25 C 487.41 521.79 497.31 527.73 507.75 534.25 C 518.18 540.78 528.50 547.54 539.75 553.25 C 550.99 558.97 562.57 564.23 574.68 569.32 C 586.79 574.41 596.75 579.61 609.69 584.31 C 622.64 589.00 632.65 593.92 647.01 597.99 C 661.37 602.06 650.83 617.95 648.07 631.07 C 645.32 644.20 640.00 658.98 640.00 674.00 C 640.00 689.02 639.26 709.37 640.00 725.00 C 640.74 740.63 637.97 759.56 640.00 775.00 C 642.03 790.44 632.60 799.06 622.25 808.25 C 611.90 817.44 603.64 822.49 591.77 827.77 C 579.90 833.05 569.39 839.28 557.92 844.92 C 546.45 850.56 535.03 856.10 523.77 861.77 C 512.51 867.44 501.53 872.82 490.31 878.31 C 479.08 883.79 467.88 890.01 457.25 896.25 C 446.62 902.49 436.02 908.09 425.78 914.78 C 415.54 921.46 406.57 929.54 396.75 936.75 C 386.94 943.96 377.43 951.05 368.00 959.00
M 194.00 1322.00 
C 202.48 1327.76 196.31 1343.38 199.00 1353.00 C 201.69 1362.62 200.99 1375.11 203.00 1385.00 C 205.01 1394.89 207.63 1405.41 209.99 1415.01 C 212.35 1424.60 215.41 1433.49 218.32 1442.68 C 221.24 1451.87 225.23 1460.53 228.78 1469.22 C 232.32 1477.91 236.21 1485.51 240.26 1493.74 C 244.31 1501.98 249.43 1509.64 253.00 1518.00
C 251.67 1518.00 250.33 1518.00 249.00 1518.00
C 223.70 1522.31 192.59 1513.68 170.93 1504.07 C 149.27 1494.46 135.30 1479.61 121.75 1460.25 C 108.19 1440.90 98.99 1417.32 97.00 1393.00 C 95.01 1368.68 104.55 1344.94 123.70 1328.70 C 142.85 1312.46 172.26 1307.24 194.00 1322.00 Z"/>
</g>
<g id="ID_31" fill="#F3F3F3" fill-opacity="1.00" stroke="None">
<path d="
M 924.00 402.00 
C 921.77 387.13 918.60 370.32 914.93 356.07 C 911.26 341.83 907.51 327.53 902.92 314.08 C 898.34 300.62 892.67 288.36 887.31 275.69 C 881.94 263.03 875.72 251.48 869.25 239.75 C 862.79 228.01 855.53 216.83 847.92 206.08 C 840.31 195.33 833.07 185.29 824.75 175.25 C 816.43 165.21 807.95 156.64 798.75 147.25 C 789.56 137.86 780.70 129.35 770.75 121.25 C 760.80 113.15 750.95 103.53 740.25 96.75 C 729.55 89.98 719.25 79.51 707.22 75.78 C 695.20 72.04 674.44 63.47 662.01 69.01 C 649.58 74.55 646.42 91.89 644.33 105.33 C 642.24 118.77 645.07 143.34 647.02 156.98 C 648.97 170.62 648.56 190.10 657.75 200.25 C 666.94 210.40 675.34 217.82 684.75 227.25 C 694.16 236.68 702.08 245.30 711.25 254.75 C 720.42 264.20 728.46 274.00 737.25 283.75 C 746.03 293.50 753.83 303.40 760.25 314.75 C 766.66 326.10 774.62 336.56 780.70 348.30 C 786.77 360.05 793.68 371.60 799.23 383.77 C 804.77 395.94 811.27 408.48 816.00 421.00
C 851.03 410.97 886.87 403.89 924.00 402.00 Z"/>
</g>
<g id="ID_32" fill="#DFDFDF" fill-opacity="1.00" stroke="None">
<path d="
M 759.00 564.00 
C 761.05 557.16 768.78 549.87 774.25 545.25 C 779.72 540.63 786.18 529.90 793.00 530.00
C 782.11 520.79 780.41 501.44 772.77 489.23 C 765.14 477.02 761.01 460.40 754.92 447.08 C 748.84 433.75 744.58 417.77 736.92 405.08 C 729.27 392.38 723.52 378.85 715.25 366.75 C 706.99 354.64 699.00 342.26 690.30 330.70 C 681.60 319.13 673.28 308.05 663.75 297.25 C 654.22 286.45 645.33 276.28 634.75 266.25 C 624.18 256.22 615.31 246.13 604.23 236.77 C 593.15 227.41 582.29 219.06 570.23 210.77 C 558.17 202.48 546.19 194.19 533.08 186.92 C 519.96 179.66 506.86 173.66 492.68 167.32 C 478.50 160.98 463.29 156.87 448.07 151.93 C 432.86 146.99 415.39 143.81 399.22 140.78 C 383.06 137.75 365.47 138.55 353.25 151.25 C 341.03 163.95 339.91 181.67 343.00 198.00 C 346.10 214.32 348.74 232.40 353.07 247.93 C 357.41 263.45 362.88 277.94 368.68 292.32 C 374.47 306.70 380.69 319.86 388.08 332.92 C 395.47 345.97 403.23 358.18 412.08 369.92 C 420.94 381.65 428.75 392.59 438.75 403.25 C 448.75 413.90 458.45 423.26 469.25 432.75 C 480.05 442.25 490.65 451.17 502.25 459.75 C 513.86 468.33 525.35 476.43 537.77 484.23 C 550.19 492.03 563.11 499.59 576.32 506.68 C 589.53 513.77 603.11 519.75 617.31 525.69 C 631.51 531.64 645.92 537.04 660.98 542.02 C 676.03 547.01 692.43 550.23 708.00 555.00 C 723.57 559.78 743.45 558.68 759.00 564.00 Z"/>
</g>
<g id="ID_33" fill="#C8C8C8" fill-opacity="1.00" stroke="None">
<path d="
M 1136.00 1058.00 
C 1137.33 1065.44 1137.27 1073.74 1138.00 1082.00
C 1139.21 1095.78 1138.94 1110.21 1138.00 1124.00
C 1137.67 1128.81 1137.88 1133.84 1137.00 1138.00
C 1135.61 1152.85 1133.76 1169.63 1130.98 1183.98 C 1128.19 1198.32 1125.55 1213.06 1121.78 1226.78 C 1118.01 1240.49 1113.79 1253.18 1108.98 1265.98 C 1104.16 1278.77 1099.80 1290.93 1093.92 1302.92 C 1088.04 1314.92 1082.98 1325.89 1076.30 1337.30 C 1069.63 1348.71 1065.15 1359.17 1056.92 1369.92 C 1048.70 1380.68 1046.07 1390.40 1035.92 1400.92 C 1025.76 1411.44 1026.64 1424.61 1032.67 1438.33 C 1038.71 1452.05 1041.49 1459.72 1049.75 1473.25 C 1058.01 1486.78 1073.13 1478.08 1082.25 1469.25 C 1091.36 1460.42 1101.11 1453.79 1110.30 1445.30 C 1119.50 1436.82 1128.03 1427.98 1138.00 1421.00
C 1154.84 1407.17 1171.72 1388.07 1186.00 1372.00
C 1204.26 1351.45 1221.99 1333.47 1238.70 1311.70 C 1255.40 1289.93 1270.71 1269.44 1286.08 1246.08 C 1301.45 1222.72 1313.73 1199.40 1326.23 1173.23 C 1338.73 1147.06 1349.74 1122.07 1359.22 1093.22 C 1368.70 1064.37 1375.62 1034.83 1382.00 1003.00 C 1388.39 971.18 1390.55 934.72 1392.00 900.00 C 1393.45 865.28 1388.70 823.16 1392.00 788.00
C 1396.04 744.89 1393.33 699.71 1393.00 656.00 C 1392.67 612.29 1396.46 566.61 1393.00 523.00
C 1391.36 497.49 1391.77 463.15 1392.00 438.00 C 1392.23 412.85 1397.71 381.10 1373.23 371.77 C 1348.75 362.44 1333.15 356.98 1310.07 348.93 C 1287.00 340.87 1268.22 335.44 1245.22 328.78 C 1222.23 322.12 1201.05 316.73 1177.22 311.78 C 1153.39 306.82 1130.58 300.78 1106.00 297.00 C 1081.42 293.22 1056.32 289.62 1031.00 287.00 C 1005.68 284.38 978.20 280.99 952.00 281.00
C 967.08 320.66 980.60 360.89 985.00 404.00
C 1002.15 405.82 1022.40 408.86 1038.26 413.74 C 1054.11 418.62 1068.52 425.59 1083.32 431.68 C 1098.12 437.77 1111.26 445.71 1124.78 453.22 C 1138.30 460.74 1150.54 469.19 1162.92 478.08 C 1175.29 486.98 1186.37 495.69 1197.25 506.75 C 1208.13 517.81 1218.20 527.19 1228.25 538.75 C 1238.30 550.32 1247.37 561.48 1255.70 574.30 C 1264.03 587.13 1272.72 599.64 1279.25 613.75 C 1285.78 627.86 1295.31 640.83 1299.69 656.31 C 1304.07 671.78 1311.61 683.75 1324.25 694.75 C 1336.89 705.75 1338.07 729.76 1335.99 745.99 C 1333.91 762.23 1323.49 779.19 1322.99 795.99 C 1322.49 812.79 1313.77 829.71 1308.78 844.78 C 1303.78 859.84 1294.95 872.46 1285.92 884.92 C 1276.88 897.38 1266.18 906.01 1255.25 917.25 C 1244.32 928.48 1232.29 935.84 1219.08 944.08 C 1205.88 952.32 1191.28 958.70 1176.22 964.22 C 1161.16 969.75 1142.13 974.10 1126.00 977.00
C 1130.65 1003.89 1133.79 1030.17 1136.00 1058.00 Z"/>
</g>
<g id="ID_34" fill="#C7C7C7" fill-opacity="1.00" stroke="None">
<path d="
M 319.00 1008.00 
C 325.49 998.73 334.76 990.87 342.75 982.75 C 350.74 974.63 358.86 965.53 368.00 959.00
C 377.43 951.05 386.94 943.96 396.75 936.75 C 406.57 929.54 415.54 921.46 425.78 914.78 C 436.02 908.09 446.62 902.49 457.25 896.25 C 467.88 890.01 479.08 883.79 490.31 878.31 C 501.53 872.82 512.51 867.44 523.77 861.77 C 535.03 856.10 546.45 850.56 557.92 844.92 C 569.39 839.28 579.90 833.05 591.77 827.77 C 603.64 822.49 611.90 817.44 622.25 808.25 C 632.60 799.06 642.03 790.44 640.00 775.00 C 637.97 759.56 640.74 740.63 640.00 725.00 C 639.26 709.37 640.00 689.02 640.00 674.00 C 640.00 658.98 645.32 644.20 648.07 631.07 C 650.83 617.95 661.37 602.06 647.01 597.99 C 632.65 593.92 622.64 589.00 609.69 584.31 C 596.75 579.61 586.79 574.41 574.68 569.32 C 562.57 564.23 550.99 558.97 539.75 553.25 C 528.50 547.54 518.18 540.78 507.75 534.25 C 497.31 527.73 487.41 521.79 477.75 514.25 C 468.08 506.72 457.85 500.16 448.75 492.25 C 439.66 484.34 431.33 476.83 422.75 468.25 C 414.18 459.67 405.55 451.48 397.75 442.25 C 389.96 433.01 382.10 423.99 374.78 414.22 C 367.45 404.46 361.19 395.24 354.30 384.70 C 347.42 374.16 340.94 364.39 335.75 352.25 C 330.57 340.10 321.52 334.21 318.32 319.68 C 315.13 305.14 295.94 304.42 283.03 310.03 C 270.11 315.63 255.71 316.37 242.74 320.74 C 229.78 325.12 217.21 328.20 204.68 332.68 C 192.14 337.16 177.82 339.95 165.67 344.67 C 153.53 349.39 139.69 352.49 128.22 357.22 C 116.76 361.96 105.42 368.25 101.93 381.93 C 98.43 395.60 102.00 416.50 101.00 432.00 C 100.00 447.50 101.47 465.81 101.00 482.00 C 100.53 498.19 99.88 515.41 100.00 532.00 C 100.12 548.59 99.94 565.26 100.00 582.00 C 100.06 598.74 99.97 616.17 100.00 633.00 C 100.03 649.83 99.98 667.20 100.00 684.00 C 100.02 700.80 99.97 717.26 100.00 734.00 C 100.03 750.74 99.64 767.91 100.67 784.33 C 101.70 800.75 100.75 817.49 101.00 834.00 C 101.25 850.51 100.87 868.69 101.00 885.00 C 101.13 901.31 101.33 918.58 103.00 934.00 C 104.67 949.42 105.81 964.26 108.01 978.99 C 110.20 993.72 113.47 1007.82 116.22 1021.78 C 118.97 1035.73 122.19 1048.79 126.22 1061.78 C 130.26 1074.77 134.10 1087.86 138.75 1100.25 C 143.39 1112.65 148.07 1125.04 153.08 1136.92 C 158.08 1148.81 163.54 1159.59 169.08 1170.92 C 174.63 1182.25 180.57 1193.37 187.08 1203.92 C 193.58 1214.48 197.94 1225.98 207.00 1234.00
C 216.60 1192.05 233.92 1148.55 251.70 1109.70 C 269.48 1070.85 294.78 1042.60 319.00 1008.00 Z"/>
</g>
<g id="ID_35" fill="#818181" fill-opacity="1.00" stroke="None">
<path d="
M 45.00 434.00 
C 45.58 428.05 46.00 420.71 46.00 414.00
C 45.42 419.95 45.00 427.29 45.00 434.00 Z"/>
</g>
<g id="ID_36" fill="#BABABA" fill-opacity="1.00" stroke="None">
<path d="
M 793.00 530.00 
C 786.18 529.90 779.72 540.63 774.25 545.25 C 768.78 549.87 761.05 557.16 759.00 564.00
C 772.05 568.46 778.82 581.59 776.98 594.98 C 775.13 608.36 763.51 615.02 752.00 618.00
C 746.08 619.53 738.63 619.00 732.00 619.00
C 725.76 618.38 720.02 619.83 714.00 620.00
C 692.31 655.97 697.00 698.64 697.00 740.00
C 698.37 754.13 698.36 770.94 697.00 785.00
C 695.46 817.57 669.12 844.76 641.70 860.70 C 614.27 876.63 583.91 890.63 556.23 906.23 C 528.55 921.83 499.36 935.54 472.70 952.70 C 446.03 969.85 421.27 986.50 397.75 1008.75 C 374.23 1031.00 354.99 1051.94 336.30 1078.30 C 317.61 1104.67 303.70 1131.27 290.32 1162.32 C 276.95 1193.37 268.84 1230.38 261.99 1264.99 C 255.14 1299.61 254.39 1349.53 262.01 1383.99 C 269.63 1418.45 278.06 1450.13 297.08 1478.92 C 316.10 1507.72 332.14 1526.64 362.77 1544.23 C 393.40 1561.82 423.33 1572.51 461.00 1577.00 C 498.67 1581.49 546.12 1579.92 587.00 1581.00 C 627.88 1582.08 675.95 1580.35 718.00 1581.00 C 760.05 1581.65 804.97 1580.63 847.00 1580.00
C 851.69 1563.25 838.74 1548.71 825.70 1538.30 C 812.66 1527.90 792.60 1527.06 778.02 1519.98 C 763.45 1512.89 734.12 1523.32 725.33 1506.67 C 716.54 1490.02 738.84 1476.10 747.75 1463.75 C 756.67 1451.40 766.03 1438.10 772.70 1422.70 C 779.36 1407.29 783.40 1386.41 784.22 1368.22 C 785.04 1350.03 784.79 1324.31 779.78 1307.22 C 774.76 1290.14 768.61 1275.79 759.92 1261.08 C 751.23 1246.37 742.72 1236.36 731.25 1223.75 C 719.78 1211.14 707.81 1204.12 693.70 1195.30 C 679.58 1186.49 664.20 1180.99 648.68 1174.32 C 633.15 1167.66 613.62 1167.50 599.25 1157.75 C 584.88 1148.01 588.92 1118.67 608.00 1119.00 C 627.08 1119.33 650.55 1121.38 667.93 1126.07 C 685.30 1130.77 700.79 1136.50 715.92 1144.08 C 731.05 1151.66 743.03 1159.91 755.75 1170.25 C 768.47 1180.58 778.95 1189.87 789.25 1202.75 C 799.54 1215.64 807.46 1227.55 815.70 1242.31 C 823.93 1257.06 829.50 1271.81 835.68 1288.32 C 841.85 1304.84 844.74 1323.71 848.00 1342.00 C 851.26 1360.29 848.64 1388.17 850.02 1406.98 C 851.41 1425.79 857.41 1443.70 862.22 1460.78 C 867.04 1477.86 874.38 1491.49 882.08 1506.92 C 889.77 1522.35 896.42 1533.51 908.75 1546.25 C 921.08 1558.99 930.67 1566.09 947.32 1573.68 C 963.97 1581.27 985.90 1581.43 1006.00 1581.00 C 1026.10 1580.57 1051.43 1581.32 1072.00 1581.00
C 1076.88 1556.74 1057.93 1539.76 1039.23 1531.77 C 1020.53 1523.78 1007.31 1509.54 996.77 1492.23 C 986.23 1474.92 980.26 1451.99 974.99 1432.01 C 969.72 1412.03 963.18 1383.72 962.00 1363.00 C 960.82 1342.28 950.10 1308.85 972.32 1297.32 C 994.54 1285.80 1009.66 1321.61 1010.00 1338.00
C 1020.27 1328.98 1024.62 1316.87 1031.08 1305.08 C 1037.53 1293.28 1042.43 1281.85 1048.07 1269.07 C 1053.72 1256.30 1057.54 1242.76 1062.08 1229.08 C 1066.61 1215.39 1070.17 1201.90 1073.01 1187.01 C 1075.85 1172.12 1078.65 1155.90 1080.00 1140.00 C 1081.35 1124.10 1082.30 1105.65 1082.00 1089.00 C 1081.70 1072.36 1078.13 1056.22 1077.33 1039.67 C 1076.53 1023.12 1070.07 1011.57 1069.33 994.67 C 1068.59 977.77 1047.15 980.81 1037.75 972.25 C 1028.35 963.69 1026.08 942.44 1038.25 935.25 C 1050.42 928.06 1074.76 935.23 1088.99 931.99 C 1103.22 928.76 1120.39 928.37 1133.98 923.98 C 1147.56 919.58 1161.78 916.16 1174.31 910.31 C 1186.83 904.45 1200.01 900.95 1208.00 891.00
C 1206.05 890.13 1204.06 890.43 1202.00 890.00
C 1197.30 889.57 1192.06 889.66 1188.00 889.00
C 1175.46 888.15 1161.77 882.81 1151.08 876.92 C 1140.39 871.04 1132.33 864.78 1124.75 855.25 C 1117.18 845.71 1111.18 835.84 1107.77 824.23 C 1104.37 812.62 1106.65 800.78 1120.32 794.32 C 1134.00 787.87 1144.26 799.59 1149.23 810.77 C 1154.20 821.95 1162.03 828.53 1171.30 836.70 C 1180.58 844.86 1196.54 844.96 1209.00 847.00 C 1221.46 849.04 1237.97 845.85 1248.25 838.25 C 1258.54 830.66 1263.46 821.48 1267.07 809.07 C 1270.69 796.67 1272.05 779.00 1271.00 765.00
C 1256.33 766.94 1238.89 764.21 1227.70 756.30 C 1216.50 748.40 1211.19 730.58 1219.23 719.23 C 1227.28 707.88 1249.05 712.63 1261.00 709.00
C 1250.08 677.00 1235.78 644.31 1216.77 616.23 C 1197.76 588.15 1181.48 564.44 1155.25 540.75 C 1129.01 517.07 1105.80 501.00 1072.70 486.31 C 1039.59 471.61 998.86 462.95 960.01 461.99 C 921.16 461.03 875.50 465.17 838.00 475.00
C 842.19 492.18 848.87 509.83 837.92 524.92 C 826.97 540.00 807.15 541.97 793.00 530.00
M 1042.00 613.00 
C 1067.40 615.46 1090.13 638.80 1089.60 664.74 C 1089.07 690.69 1065.22 714.74 1039.26 713.60 C 1013.29 712.45 989.10 688.43 991.00 662.00 C 992.90 635.57 1013.00 610.19 1042.00 613.00
M 889.00 993.00 
C 899.48 995.32 905.63 1004.88 914.25 1010.75 C 922.87 1016.62 929.73 1000.64 939.23 997.23 C 948.73 993.82 967.65 990.95 979.00 993.00 C 990.35 995.05 998.13 1000.22 1006.25 1008.75 C 1014.37 1017.29 1017.97 1027.49 1020.00 1039.00 C 1022.02 1050.51 1020.02 1065.63 1016.23 1076.23 C 1012.44 1086.82 1006.77 1095.75 1000.75 1104.75 C 994.74 1113.75 988.49 1120.03 980.75 1127.75 C 973.01 1135.47 965.98 1141.97 957.75 1148.75 C 949.53 1155.53 942.05 1160.45 934.25 1168.25 C 926.46 1176.06 915.56 1182.33 907.75 1172.25 C 899.94 1162.16 893.46 1159.51 885.75 1151.25 C 878.05 1142.99 869.31 1139.20 862.25 1130.75 C 855.18 1122.31 847.60 1117.63 840.75 1109.25 C 833.90 1100.87 828.11 1092.55 823.08 1082.92 C 818.04 1073.30 813.73 1060.36 814.00 1049.00 C 814.27 1037.64 817.07 1023.78 823.92 1014.92 C 830.78 1006.06 837.64 999.53 848.08 996.08 C 858.51 992.62 877.24 990.40 889.00 993.00 Z"/>
</g>
<g id="ID_37" fill="#7C7C7C" fill-opacity="1.00" stroke="None">
<path d="
M 1392.00 788.00 
C 1395.25 772.05 1393.90 753.58 1394.00 736.00 C 1394.10 718.42 1394.08 699.67 1394.00 682.00 C 1393.92 664.33 1394.32 646.64 1394.00 629.00 C 1393.68 611.36 1394.76 592.50 1394.00 575.00 C 1393.24 557.50 1396.19 539.51 1393.00 523.00
C 1396.46 566.61 1392.67 612.29 1393.00 656.00 C 1393.33 699.71 1396.04 744.89 1392.00 788.00 Z"/>
</g>
<g id="ID_38" fill="#6D6D6D" fill-opacity="1.00" stroke="None">
<path d="
M 1451.00 746.00 
C 1454.36 711.32 1452.00 673.59 1452.00 638.00 C 1452.00 602.41 1454.36 564.75 1451.00 530.00
C 1451.00 602.00 1451.00 674.00 1451.00 746.00 Z"/>
</g>
<g id="ID_39" fill="#222222" fill-opacity="1.00" stroke="None">
<path d="
M 1042.00 613.00 
C 1013.00 610.19 992.90 635.57 991.00 662.00 C 989.10 688.43 1013.29 712.45 1039.26 713.60 C 1065.22 714.74 1089.07 690.69 1089.60 664.74 C 1090.13 638.80 1067.40 615.46 1042.00 613.00 Z"/>
</g>
<g id="ID_40" fill="#626262" fill-opacity="1.00" stroke="None">
<path d="
M 732.00 619.00 
C 738.63 619.00 746.08 619.53 752.00 618.00
C 745.64 618.85 737.83 618.44 732.00 619.00 Z"/>
</g>
<g id="ID_41" fill="#767676" fill-opacity="1.00" stroke="None">
<path d="
M 697.00 785.00 
C 698.36 770.94 698.37 754.13 697.00 740.00
C 697.00 755.00 697.00 770.00 697.00 785.00 Z"/>
</g>
<g id="ID_42" fill="#818181" fill-opacity="1.00" stroke="None">
<path d="
M 46.00 872.00 
C 46.00 864.30 45.68 856.01 45.00 849.00
C 45.00 856.70 45.32 864.99 46.00 872.00 Z"/>
</g>
<g id="ID_43" fill="#6D6D6D" fill-opacity="1.00" stroke="None">
<path d="
M 1202.00 890.00 
C 1197.85 889.14 1192.82 889.26 1188.00 889.00
C 1192.06 889.66 1197.30 889.57 1202.00 890.00 Z"/>
</g>
<g id="ID_44" fill="#6D6D6D" fill-opacity="1.00" stroke="None">
<path d="
M 319.00 1008.00 
C 332.86 991.13 351.22 973.06 368.00 959.00
C 358.86 965.53 350.74 974.63 342.75 982.75 C 334.76 990.87 325.49 998.73 319.00 1008.00 Z"/>
</g>
<g id="ID_45" fill="#979797" fill-opacity="1.00" stroke="None">
<path d="
M 889.00 993.00 
C 877.24 990.40 858.51 992.62 848.08 996.08 C 837.64 999.53 830.78 1006.06 823.92 1014.92 C 817.07 1023.78 814.27 1037.64 814.00 1049.00 C 813.73 1060.36 818.04 1073.30 823.08 1082.92 C 828.11 1092.55 833.90 1100.87 840.75 1109.25 C 847.60 1117.63 855.18 1122.31 862.25 1130.75 C 869.31 1139.20 878.05 1142.99 885.75 1151.25 C 893.46 1159.51 899.94 1162.16 907.75 1172.25 C 915.56 1182.33 926.46 1176.06 934.25 1168.25 C 942.05 1160.45 949.53 1155.53 957.75 1148.75 C 965.98 1141.97 973.01 1135.47 980.75 1127.75 C 988.49 1120.03 994.74 1113.75 1000.75 1104.75 C 1006.77 1095.75 1012.44 1086.82 1016.23 1076.23 C 1020.02 1065.63 1022.02 1050.51 1020.00 1039.00 C 1017.97 1027.49 1014.37 1017.29 1006.25 1008.75 C 998.13 1000.22 990.35 995.05 979.00 993.00 C 967.65 990.95 948.73 993.82 939.23 997.23 C 929.73 1000.64 922.87 1016.62 914.25 1010.75 C 905.63 1004.88 899.48 995.32 889.00 993.00 Z"/>
</g>
<g id="ID_46" fill="#6B6B6B" fill-opacity="1.00" stroke="None">
<path d="
M 1138.00 1082.00 
C 1137.27 1073.74 1137.33 1065.44 1136.00 1058.00
C 1136.60 1065.59 1136.55 1074.86 1138.00 1082.00 Z"/>
</g>
<g id="ID_47" fill="#6E6E6E" fill-opacity="1.00" stroke="None">
<path d="
M 1137.00 1138.00 
C 1137.88 1133.84 1137.67 1128.81 1138.00 1124.00
C 1137.27 1128.10 1137.44 1133.28 1137.00 1138.00 Z"/>
</g>
<g id="ID_48" fill="#BCBCBC" fill-opacity="1.00" stroke="None">
<path d="
M 249.00 1518.00 
C 253.33 1515.06 243.92 1505.73 242.25 1501.75 C 240.57 1497.78 236.54 1489.90 234.08 1484.92 C 231.61 1479.95 228.39 1473.56 226.08 1467.92 C 223.77 1462.28 220.98 1455.35 218.68 1449.32 C 216.37 1443.30 214.59 1436.73 212.67 1430.33 C 210.76 1423.92 208.61 1417.76 207.02 1410.98 C 205.44 1404.19 203.60 1396.92 202.07 1389.93 C 200.55 1382.94 200.22 1375.18 199.00 1368.00 C 197.78 1360.81 197.33 1353.24 196.00 1346.00 C 194.67 1338.76 198.60 1328.25 194.00 1322.00
C 172.26 1307.24 142.85 1312.46 123.70 1328.70 C 104.55 1344.94 95.01 1368.68 97.00 1393.00 C 98.99 1417.32 108.19 1440.90 121.75 1460.25 C 135.30 1479.61 149.27 1494.46 170.93 1504.07 C 192.59 1513.68 223.70 1522.31 249.00 1518.00 Z"/>
</g>
<g id="ID_49" fill="#DBDBDB" fill-opacity="1.00" stroke="None">
<path d="
M 249.00 1518.00 
C 250.33 1518.00 251.67 1518.00 253.00 1518.00
C 249.43 1509.64 244.31 1501.98 240.26 1493.74 C 236.21 1485.51 232.32 1477.91 228.78 1469.22 C 225.23 1460.53 221.24 1451.87 218.32 1442.68 C 215.41 1433.49 212.35 1424.60 209.99 1415.01 C 207.63 1405.41 205.01 1394.89 203.00 1385.00 C 200.99 1375.11 201.69 1362.62 199.00 1353.00 C 196.31 1343.38 202.48 1327.76 194.00 1322.00
C 198.60 1328.25 194.67 1338.76 196.00 1346.00 C 197.33 1353.24 197.78 1360.81 199.00 1368.00 C 200.22 1375.18 200.55 1382.94 202.07 1389.93 C 203.60 1396.92 205.44 1404.19 207.02 1410.98 C 208.61 1417.76 210.76 1423.92 212.67 1430.33 C 214.59 1436.73 216.37 1443.30 218.68 1449.32 C 220.98 1455.35 223.77 1462.28 226.08 1467.92 C 228.39 1473.56 231.61 1479.95 234.08 1484.92 C 236.54 1489.90 240.57 1497.78 242.25 1501.75 C 243.92 1505.73 253.33 1515.06 249.00 1518.00 Z"/>
</g>
<g id="ID_50" fill="#686868" fill-opacity="1.00" stroke="None">
<path d="
M 1138.00 1421.00 
C 1147.13 1414.61 1154.51 1404.36 1162.75 1396.75 C 1171.00 1389.15 1179.63 1380.92 1186.00 1372.00
C 1171.72 1388.07 1154.84 1407.17 1138.00 1421.00 Z"/>
</g>
<g id="ID_51" fill="#A0A0A0" fill-opacity="1.00" stroke="None">
<path d="
M 1202.00 1434.00 
C 1210.32 1427.03 1217.83 1419.23 1225.00 1411.00
C 1215.21 1417.99 1208.99 1424.21 1202.00 1434.00 Z"/>
</g>
<g id="ID_52" fill="#ABABAB" fill-opacity="1.00" stroke="None">
<path d="
M 108.00 1526.00 
C 104.97 1522.09 103.49 1517.98 99.75 1514.25 C 96.02 1510.52 91.91 1509.02 88.00 1506.00
C 93.66 1513.54 100.41 1520.30 108.00 1526.00 Z"/>
</g>
</svg>